<svg width="478" height="912" viewBox="0 0 478 912" fill="none" xmlns="http://www.w3.org/2000/svg">
<path d="M211.5 1.5C203 3.4 193.6 6.69999 185.5 10.8C160.2 23.4 144.8 41.9 137.8 68.2C135.6 76.4 135.6 77.8 135.3 154.6L134.9 232.8L127.5 236C123.4 237.8 120 239.7 120 240.1C120 240.6 119.4 241 118.7 241C118 241 115.8 242.6 113.9 244.6C112.1 246.6 107.3 250.4 103.4 253C99.5 255.7 94.5 259.9 92.4 262.3L88.5 266.7L72.5 267.3C63.7 267.6 54.9 268.3 53 268.9C46.8 270.7 40.3 275.6 37.5 280.4C32.5 288.9 31.7 294.6 32.4 313.5C32.8 322.8 33.3 331.8 33.5 333.5C39.2 385.4 43.2 446.9 41.5 456.3L40.8 460L36 456.5C27.1 450 11.5 444.3 5.8 445.6C-3.3 447.5 -2.2 458.2 13.5 523C22.7 561.1 29 588.8 33.6 611.4C43.4 660.1 43.8 672.1 36.4 707.8C34.5 716.9 33 726.2 33 728.5C33 731.9 37.6 748.1 43.8 766C45 769.5 47.9 773 56.5 781.5C62.7 787.5 69.8 795.2 72.3 798.5C78.7 807.1 80.3 808.3 84.2 807.7C86.8 807.4 88.2 807.9 90.8 810.2C95.4 814.2 99.6 813.8 102.7 809.1C105.5 805 105.6 801.6 103.1 791.8C100.8 782.9 97.3 775.5 92 768.5C88.7 764.1 88.2 762.7 87.7 755.9C87.3 751.8 86.5 745.2 85.9 741.4C84.7 734.4 85.2 729.8 87 731.6C88.5 733.2 95.2 745.4 95.6 747.4C95.8 748.5 96.3 749.6 96.8 749.9C98.4 751 99.8 754.5 102.5 764.1C107.3 781.2 115.1 792 122.5 792C125.1 792 126.4 791.4 127.6 789.5C129.1 787.2 129.1 785.4 127.5 766C125.7 743.2 125 739.8 119.6 732.1C114.9 725.2 112.3 717.8 111.1 708C109.7 697.3 107.8 693.2 99.1 683C95.2 678.3 91 672.7 89.9 670.4C86.8 663.8 85 653.6 84.3 638.5C83.7 623.5 84.2 619 92.5 563.4C94.4 550.6 96 538.2 96 535.7C96 529.2 94.2 521.3 91.4 515.7C89.2 511.5 88.9 508.9 88 491.2C87.4 480.4 86.5 465.9 86 459C84.9 445 84.6 390.7 85.6 389.7C86 389.3 88.2 392.4 90.6 396.6C98.4 410.3 111.2 424 120.1 428C122.4 429.1 122.5 429.4 122.2 438.8C121.8 452.9 124.6 457.5 134.2 458.2C138.3 458.4 138.2 457.6 135.4 473.3C133.1 486.1 131.8 507.6 132.5 522C132.8 529.4 134 549.9 135 567.5C136.1 585.1 137.2 604.2 137.5 610C137.8 615.8 138.3 623.6 138.6 627.3L139.2 634.2L135.1 632.1C129.7 629.3 126.5 629.5 123.3 632.6C120.8 635.1 120.7 635.6 121.3 642.8C122.1 652.5 125.3 668.4 132.3 696.5C144.2 744.2 155.1 807.2 155.4 829C155.5 839.2 155.2 841.1 153.2 845.2C147.3 857.1 134 863.3 78.5 880C58.1 886.1 51.2 889.3 48.7 893.8C45.1 900 49 907.8 56.9 910C61.9 911.4 205.4 911.4 208.1 910C209.1 909.4 210.9 907.2 212 905C214.5 900.1 214.7 887.9 212.5 873.4C210.3 858.5 210.6 841.9 213.5 827C214.8 820.1 218.7 800.3 222 783C230 742.2 229.8 737.5 219.3 722.3L215.8 717.2L218.9 695.1C225 652.9 229.2 602.6 232.5 534.1C233.3 518 234 504.6 234.2 504.4C234.5 504.2 244 506.9 244.8 507.5C244.9 507.6 245.9 516.9 247 528.1C250.5 564.7 254.1 590 262 634.5C268.1 668.7 269.3 679.4 269.3 700.5C269.3 718.8 269.2 719.8 266.5 727.4C261.9 740.3 261.9 740.3 282.5 825.5C289 852.6 289.2 856.5 285.4 879.7C282.4 898.4 282.6 904 286.4 907.8L289 910.5L354.8 910.8C426.2 911.1 429.3 910.9 434.2 906C436.5 903.6 437 902.3 437 898C437 891.4 434.5 888.9 424.7 886C368.8 869.4 349.3 862.9 345.2 859.4C341.5 856.1 339.1 850.4 339 844.5C339 842.3 342.8 811.7 347.6 776.5C358.8 692.1 361.2 672.6 362.9 650.6C363.7 639.8 363.7 637.5 362.5 636.3C360.7 634.5 360.6 633.6 362.3 634.6C362.9 635 362.6 634.4 361.6 633.2C359.3 630.5 353.4 630.2 348.9 632.6C347.2 633.4 345.6 633.9 345.3 633.6C345 633.3 345.5 625.1 346.4 615.2C350.3 573.2 350.3 520.8 346.4 497.2C345.6 491.9 344.6 486.1 344.4 484.5C344.1 482.8 342.6 476.5 340.9 470.3C339.3 464.1 338 458.9 338 458.6C338 458.3 339.7 457.8 341.8 457.4C346.3 456.6 348.8 455.4 351.8 452.7C356.1 448.7 354.1 429.7 349 426.5C348.5 426.2 351.3 423.7 355.3 421C375.7 407.4 390.4 382.6 395.5 353.3C396.3 348.6 397 342.7 397 340.1C397 332.2 398.5 332.2 400.8 340.2C403.6 349.7 405.7 362.5 406.9 378C408.8 401.1 410.2 439.4 409.8 458.5L409.5 477.5L401.7 491C397.4 498.4 393.4 506.3 392.8 508.5C392.3 510.7 391 514.7 390.1 517.5C389 520.9 388.5 525.9 388.5 533C388.6 543.4 388.7 544.2 401.8 591.4C410.9 624.3 415.3 642.1 416.1 648.6C417.2 658.5 416.6 664.6 412 693C409.1 710.6 410.8 719.9 418.4 729.9L421.8 734.4L417.2 743.6C413 752.1 412.1 753.1 407.5 755.6C396.1 761.8 387.6 773.7 388.2 782.7C388.5 787.4 388.6 787.5 392.7 788.8L397 790.2L395 794C392.1 799.6 392.4 804.4 395.6 806.9C399.1 809.7 402.4 809.5 411.2 806.4C420.9 802.9 426.6 799.9 438 792.6C447.1 786.7 447.6 786.5 453.1 786.8C458.2 787.1 458.9 786.9 460.9 784.4C462.2 782.8 463 780.3 463 778C463 774.9 463.9 773.2 468.6 767.9C471.7 764.5 475.1 759.8 476.1 757.6C478.5 752.4 478.6 739.5 476.4 727.9C474.5 717.2 468.3 693.9 465.9 687.8C462.7 679.7 460 663.9 460 653.6C460 647.8 462.6 622.6 466.5 590.7C476.8 507.7 477.2 502.8 476.7 478C476.4 466.2 476 455 475.7 453.2C472.8 436.7 471.9 434.6 467.1 433.5C465.3 433.1 462.7 433.5 460.5 434.5C458.4 435.3 456.4 435.8 456.1 435.5C455.8 435.2 455.2 417.5 454.8 396.2C452.7 297 452.6 294.3 449.5 286.3C446.4 277.9 440.7 270.9 434.6 267.8C428.6 264.7 415.3 264.3 398.3 266.5L384.8 268.4L380.4 263.3C375.4 257.5 368.5 252.7 361 249.9C358.2 248.8 352.6 245.7 348.5 242.9C344.4 240.2 338.3 236.8 334.8 235.4C331.3 234 327.9 232.3 327.3 231.8C326.3 231 326 215.3 326 159.6C326 89.3 325.6 81.2 322.4 68.5C319.1 55.2 310.2 40.4 298.5 28.6C284.6 14.6 268.2 5.69996 248 1.39996C239.9 -0.300037 219.6 -0.3 211.5 1.5ZM252.2 6.89996C279.5 14 304.4 35.2 314.8 60.1C321.4 76 321.3 74.9 321.7 156.8L322.1 231.1L319.8 230.6C318.5 230.3 315 229.8 311.9 229.5L306.3 228.9L305.6 224.3C305.3 221.8 305 217.6 305 215.1C305 208.8 302.6 198.3 300 192.6C296.5 185.3 290.5 179.9 280.7 175.2C270.5 170.3 267 167.3 267 163.2C267 159.4 269.2 157.6 276.2 155.6C288.1 152.2 295 143.2 295 131C295 120.5 290.2 112.3 281.5 107.7C278.3 106 275.8 105.6 269 105.6C256.9 105.7 250.5 108.3 241.9 116.9C233.9 124.9 231 131.5 231 141.8C230.9 148.1 230.8 148.3 229.5 146C227.1 141.7 226.7 134.9 228.5 127.5C230.5 118.6 231.9 116.6 237.9 113.5C247.8 108.6 253 99.2 253 86.6C253 70.9 242.7 61.7 226.8 63.4C209.5 65.2 198.3 77.9 196.2 98L195.5 104.5L189.8 105.2C169.5 107.7 159.3 123.3 164.4 144C165.1 147 167.9 154.2 170.6 160C175 169.6 175.4 171.2 175.5 178.2C175.5 185.7 175.4 186 168.5 199.7C162.4 211.8 161.5 214.2 161.5 219C161.5 222 161.8 225.4 162.3 226.6C163 228.5 162.5 228.7 152.8 229.8C147.1 230.5 141.7 231 140.8 231C139.1 231 139 226.8 139 157.2C139.1 100 139.4 81.8 140.4 76C144 55.6 157.4 34.7 174.7 22.4C185.9 14.3 203.4 7.39996 218.5 4.89996C226.3 3.69996 243.6 4.69996 252.2 6.89996ZM240 70.3C245.1 73 249 79.3 249 84.9C249 89.7 247.3 95.4 245.1 98.1C243.4 100.2 243.2 100.3 240.9 98.7C239.6 97.7 237.7 97 236.6 97C233.9 97 231 99.9 231 102.7C231 105.4 230.9 105.4 224.3 103.5C212.6 100 207.7 86.7 214.1 76.3C218.9 68.6 231.3 65.7 240 70.3ZM276.2 110C281 111.4 285.6 115.3 288 120.1C290.4 124.7 290.5 128.1 288.4 132.5C286.7 136.1 282 141 282 139.2C282 137.4 276.4 137.7 274.6 139.6C273.7 140.4 273 141.8 273 142.7C273 144 272.2 144.2 268.8 143.7C258.1 142.3 251.3 129.9 255.8 119.9C258.1 114.6 260.6 112.3 265.7 110.4C270.4 108.8 271.5 108.7 276.2 110ZM204 112C208.2 114.1 212.3 120.1 213.5 125.9C214.3 129.8 212.7 136.5 210 140L208.1 142.5L206.5 140.2C203.2 135.6 195.8 138.7 197.5 144C198 145.7 197.7 146 195 146C185.8 146 178 137.8 178 127.9C178 114.5 192.1 105.9 204 112ZM294.5 232.5C307.2 233.4 320.2 234.8 323.5 235.6C328.6 236.9 343.6 243.8 342.8 244.5C342.6 244.6 336.2 243.9 328.5 242.9C284.9 237.3 225.6 235.4 188 238.4C167.1 240.1 136.9 244 124.7 246.6C116 248.4 115.4 248.4 117.1 246.4C119.3 243.7 131.8 238 139.9 235.9C146.6 234.2 167.4 231.8 185.5 230.6C199.9 229.7 273.1 230.9 294.5 232.5ZM268.5 243.6C274.1 246.6 282.3 255.6 285.8 262.6C288.5 268 293 281.2 293 283.8C293 284.4 290.4 285.6 287.3 286.5C274 290.4 266.7 296.2 261.7 306.8C259.2 312.2 258.6 314.9 258.2 322.9C257.3 343.5 264.2 357 279.8 364.8C284 366.9 288.5 368.9 289.7 369.2L291.9 369.8L289.4 379.1C285.7 393.1 278.9 407.8 272 417L270.1 419.5L233.8 419.3C193.1 419.2 172.4 418.1 141 414.4C105.2 410.2 103.9 409.7 95 395.8C87.1 383.7 85.1 376.4 86.9 366.6C87.6 362.7 89 354.5 90 348.5C92.8 330.9 97.8 323.3 108 321.1C112.5 320.1 113.6 320.3 117 322C119.7 323.4 122.9 324 127.2 324C143.4 324 155 311 155 293C155 275.5 144.1 263.3 127.5 262.2C121.1 261.8 120 262.1 114.6 264.9C109.7 267.5 107.7 268 101.9 268C93.3 268 93.1 267 100.5 260.2C107.6 253.7 112.8 251.8 132.5 248.7C169.3 242.8 191.7 241.2 234 241.4C263.1 241.5 264.7 241.6 268.5 243.6ZM300.1 244C339 247 360.9 252.2 372 261C377.8 265.6 381.6 272.2 385.5 284.3C395.3 314.4 395.4 343.3 385.9 371.1C383 379.6 374.9 395.3 370.3 401.5C368.2 404.2 364.8 407.3 362.8 408.3C360.1 409.6 348.5 411.3 319.3 414.6C297.4 417 278.8 418.9 277.9 418.8C276.5 418.5 277 417.1 280.6 411C287.1 399.9 291.1 389 294.4 372.9C294.9 370.5 295.5 370.2 300.8 369.7C308.9 369 315 366.1 321.6 359.8C328.7 353.1 332.8 345.2 334 335.7C336 319.5 331 303.7 320.9 294.6C316 290.2 307.1 286 302.7 286C298.9 286 297.4 283.9 295.6 276.5C292.9 265.4 287 254.3 280.6 248.2L275.1 243H280.9C284 243 292.7 243.5 300.1 244ZM139.1 268.6C148 273.5 152.7 283.1 151.7 294.8C151.1 302.5 147.2 310.9 142.2 315C136.1 320 126.2 322.3 120.5 320.1C118.9 319.4 119.7 319 124.2 318.1C144.4 313.8 153.2 290.1 139.5 276.5C135.2 272.1 130.4 270.3 120.2 269L114.5 268.3L118 266.6C123.2 264.1 132.4 265 139.1 268.6ZM415.6 270.2C416 270.8 416.3 274.5 416.3 278.4C416.2 286 413.7 294.3 409.3 301.4C406 306.6 397.7 314.7 397.2 313.2C397 312.6 397.8 309.3 398.9 305.9C403.4 293.2 403.8 283.9 400.4 272.3C399.9 270.4 400.2 270.1 403.7 269.7C411.6 268.9 414.9 269 415.6 270.2ZM431.9 271.1C435.4 272.4 435.8 274.3 433.9 283.2C431.4 295 423 306.4 407.3 319.1L400.1 325L398.6 322.8C397.1 320.7 397.3 320.3 404.4 313.1C415.9 301.2 421 288.6 419.7 274.9L419.2 268.8L424 269.4C426.7 269.8 430.2 270.5 431.9 271.1ZM101.2 273.3C107.7 276.2 112.4 281 114.6 286.6C118.4 296.6 114.3 316 108.2 316.8C106.2 317.1 106.1 316.9 107.1 314.3C109.1 309 108.4 298.6 105.6 292.5C102.5 285.8 94.5 277.7 86.3 273.1L80.5 269.9L88.2 270.4C93.5 270.7 97.7 271.6 101.2 273.3ZM76.5 272.4C87.7 275.4 97.5 283 102.4 292.8C107 301.8 106.8 309.1 101.8 317L99.6 320.5L98 313.5C95.6 303.3 93.4 299.3 86.1 291.9C73.1 278.9 57 274.3 42.5 279.4C41.2 279.9 41.8 279 44 277C45.9 275.3 49.5 273.3 52 272.5C57.8 270.7 70.1 270.7 76.5 272.4ZM398 277.2C399.2 282 399.2 284.6 398.2 292.6C396.7 304.5 395.5 307.1 394.5 300.9C394.1 298.5 392.2 291.2 390.4 284.7C388.5 278.2 387 272.7 387 272.5C387 272 392.1 271.2 394.5 271.4C396.1 271.5 396.8 272.7 398 277.2ZM125.2 273.6C130.4 274.8 133.2 276.1 135.9 278.6C146.1 287.8 143 305.3 130 312C126.5 313.8 117 315.7 117 314.7C117 314.4 117.7 311.5 118.5 308.3C120.6 300.1 120.4 290.5 117.9 285C116.8 282.6 113.8 278.6 111.3 276.3L106.7 272H112.4C115.5 272 121.3 272.7 125.2 273.6ZM441.2 278.7C446.6 284.9 447.5 293.6 443.4 301.8C438.4 311.8 423.7 322.5 404.3 330.1C400.6 331.5 401.4 327.8 405.1 325.6C409.6 322.9 422.3 310.7 427.9 303.6C434.5 295.3 437.1 289.7 437.7 282.8C438.3 276.6 438.8 276 441.2 278.7ZM70.3 284.4C78.8 288.7 88.2 297.6 91.9 304.8C94.5 309.8 95.6 317.4 94.3 320.9C93.3 323.3 93.3 323.3 90.3 318.9C85.5 311.9 76.4 303.3 71.2 300.6C58.4 294.1 45.9 295.3 36.8 303.8C34.1 306.3 34 306.3 34 304.2C34 299.8 36.3 291.3 38.6 287.4C41.9 281.6 45.8 279.9 55.1 280.2C61.6 280.5 63.8 281 70.3 284.4ZM303.6 290.1C314.3 292 322.8 298.9 327.8 309.9C329.8 314.3 330.5 317.5 330.8 324.7L331.2 333.9L327.9 333C322.9 331.5 322.7 331.6 320.2 336.3C317 342.4 309.8 350.3 304.5 353.7C299.7 356.7 299.2 358 301.5 362C302.3 363.4 302.9 364.9 303 365.4C303 365.9 299.7 366 295.8 365.8C290.5 365.4 287 364.6 283.1 362.6C273.4 357.6 264.8 346.8 263.3 337.6L262.8 334.2L267.6 333.5C270.3 333.1 273 332.7 273.6 332.5C274.2 332.3 275 329.4 275.3 326.1C275.7 322.7 276.9 317.7 278.1 314.9C280.4 309.7 286.7 303.4 290.7 302.4C292 302 293 301.7 293 301.5C293 301.4 292.3 299.3 291.5 297C289.5 291.3 289.6 290.2 292.3 289.7C296.2 288.9 297.5 289 303.6 290.1ZM286.9 295.1C288.4 299.4 288.3 299.8 285.9 300.5C284.8 300.9 282.4 302.5 280.6 304L277.4 306.9L272.6 304.7L267.9 302.5L271.2 299.4C274.8 295.9 281.6 292.1 284.2 292C285.1 292 286.3 293.3 286.9 295.1ZM67.8 302.6C75.5 306.4 84.2 314.8 88.1 322.5C90 326 91.2 329.1 91 329.3C90.7 329.6 87.2 329 83.2 327.9C71.9 325 60.2 323.8 47.7 324.2L36.2 324.5L35.7 319.7C35.5 317.1 35.6 313 36.1 310.7C38 300.1 54.1 296 67.8 302.6ZM450 312V323.9L441.8 328C435.2 331.2 406.2 340.5 405.4 339.7C405.2 339.6 404.9 338.4 404.6 337C404 334.7 404.6 334.2 414.7 329.5C431.9 321.5 442.4 313.1 447.4 303.2C448.3 301.5 449.3 300 449.5 300C449.8 300 450 305.4 450 312ZM271 308.1L274.7 310.2L272.9 316.2C271.8 319.5 271 323.7 271 325.6C271 329.1 271 329.1 266.8 328.8L262.5 328.5V322C262.5 316.2 265.2 306 266.7 306C267 306 268.9 306.9 271 308.1ZM77.5 329.9C89.5 332.8 89.7 332.9 88.1 337.9C87.5 340.2 86.8 342 86.7 342C86.6 342 82.9 342.7 78.5 343.6C70 345.2 40.3 345.8 38.9 344.3C38.5 343.9 37.9 340.1 37.5 335.8C36.8 328.3 36.8 328.2 39.1 327.7C44.7 326.4 68.7 327.8 77.5 329.9ZM449 336.9V344.7L436.8 345.8C411.5 348.1 408.1 348.1 407 346C406.5 345 406 343.7 406 343.2C406 342.7 410.2 341.5 415.3 340.6C425.8 338.6 437 335.1 443.8 331.5C446.4 330.2 448.6 329.1 448.8 329C448.9 329 449 332.5 449 336.9ZM86 348.2C86 348.9 85.1 355.7 84 363.3C80 390.4 79.8 434.5 83.5 482.5C84.3 493.5 85 502.9 85 503.4C85 505.1 78.9 498.6 76.9 494.8C73.8 488.8 72.9 471.2 72.3 408.3L71.8 349.2L76.1 348.2C82.5 346.8 86 346.8 86 348.2ZM66 349.6L68.5 350.1V401.8C68.5 430.2 68.9 460.8 69.3 469.8C70 483.8 69.9 486 68.6 485.3C67.9 484.9 62.4 479.9 56.6 474.3L46 464.1V444.1C46 420.4 44.8 401.3 41.5 371.6C40.1 359.6 39 349.3 39 348.8C39 347.9 60.2 348.5 66 349.6ZM449.4 366.7C450.8 405.9 452.2 457.4 452.4 472.6L452.5 488.6L449.5 493L446.5 497.3L445.8 490.4C441.6 450.3 439.5 405.7 440.3 373.7C440.6 361.2 441.2 350.5 441.5 350C441.8 349.4 443.6 349 445.4 349H448.8L449.4 366.7ZM437.7 355.7C437.3 358.4 436.8 370.8 436.4 383.5C435.7 409 436.8 435.1 440.4 474.5C441.6 488.2 442.4 500.5 442.1 501.7C440.8 506.8 413.4 535 409.8 535C409.1 535 409 533.4 409.4 531C412.9 509.2 413.5 497.6 413.5 451C413.5 405.8 412.6 386.3 409.4 356.7L408.7 351H423.5H438.3L437.7 355.7ZM125.5 415.9C158 421.4 184.8 423.4 229.2 423.4C249.5 423.5 266 423.7 266 424C266 424.3 265.1 426 263.9 427.9L261.9 431.3L205.7 430.6C148 429.9 136.3 429.2 127.3 425.8C119 422.7 104.6 411.2 111.8 413.4C112.7 413.7 118.9 414.8 125.5 415.9ZM355 416C347 422.4 336 425.5 313 427.9C298.5 429.4 268 431.3 267.4 430.8C267.1 430.5 267.7 428.7 268.6 426.7L270.3 423.2L280.9 422.5C297 421.6 330 418.1 343.5 416.1C350.1 415.1 356 414.2 356.5 414.1C357.1 414.1 356.4 414.9 355 416ZM346.9 431.4C348.7 433.3 349.3 435.4 349.7 440.4C350.5 449.6 349.1 451.5 340.3 453C330.4 454.6 314.5 456.8 314.2 456.5C314.1 456.4 314.4 455.1 315 453.6C316.5 449.6 316.2 439.5 314.6 435.5C313.2 432.3 313.3 432 314.8 431.9C315.7 431.9 320.6 431.2 325.5 430.5C340.2 428.4 344.3 428.6 346.9 431.4ZM151 433.5C162.3 434.3 172.7 435 174.3 435H177V444.4C177 449.6 176.6 454.2 176 454.5C175.5 454.8 165 454.8 152.8 454.4C131.4 453.7 130.5 453.6 128.3 451.4C126.3 449.4 126 448.1 126 440.5C126 432.3 126.1 432 128.3 432C129.5 432 139.7 432.7 151 433.5ZM311.1 436.2C312.8 440.2 312.8 450.7 311.1 453.8C310.4 455 307.6 457.1 304.7 458.4C297.7 461.6 295.7 463.6 285.4 477C270 497.1 264.6 501 250.4 502.5C241.2 503.5 237.1 500.9 229 489C221 477.3 210.3 466.4 202.9 462.2C199.7 460.4 193.7 458.1 189.4 457C185.2 455.9 181.4 454.8 181.2 454.5C180.3 453.6 179.7 443.2 180.4 439.5L181.1 436L198.7 436.2L216.3 436.5L218.1 444.3C220.5 454.3 222.2 457.4 227.2 461C238.1 468.9 259 470.1 272 463.5C278.5 460.2 279.8 458.4 284.5 445.8L288.7 434.5L293.1 433.9C295.5 433.6 300.3 433.2 303.6 433.2C309.6 433 309.8 433.1 311.1 436.2ZM284 434.3C284 434.4 283.1 437.8 282 441.9C277.5 457.9 274.3 460.9 258.8 463.5C255 464.1 255 464.1 255 460.7C255 457.5 255.3 457.3 260.4 455.7C268 453.3 270.3 451.1 274.1 442.6C276.8 436.5 277.9 435 280 434.7C281.4 434.5 282.8 434.2 283.3 434.1C283.7 434.1 284 434.1 284 434.3ZM228.9 441.3C231.2 451.6 235 455.4 244.9 457.2C250.7 458.3 251 458.5 251 461.2C251 463.8 250.7 464 247.1 464C245 464 240.3 463.1 236.7 462C226.9 459 223.5 454.1 220.5 439.2C219.8 436 219.9 436 223.8 436C227.7 436 227.7 436 228.9 441.3ZM271.6 439.2C270.6 444.6 265.9 450.3 261.5 451.8C254.9 454.1 247.1 454.2 241.6 452.3C235.8 450.2 233.3 447.2 232.1 440.7L231.3 436H251.8H272.3L271.6 439.2ZM467.6 439.4C469.2 440.6 469.5 442.1 469.5 449.2C469.5 456.9 469.2 458.1 465.2 466.5C459.4 478.6 458 480.6 456.9 478.9C456.4 478.1 456 469.8 456 460.4C456 444 456.1 443.3 458.3 441.3C462.1 437.8 464.7 437.3 467.6 439.4ZM15.1 450.6C33.8 456 62.1 480.8 81.2 508.5C88.9 519.5 91.1 524.4 91.7 530.9C92 534.7 90.4 547.9 86.6 572.5C79.2 620.1 78.4 628.5 79.8 643.5C80.5 650.1 80.6 655.7 80.2 656.1C79.6 656.7 53.3 663.4 48.6 664.2C46.8 664.5 46.5 663.3 44.9 651C42.4 631.7 30.5 576.7 15 513C4.9 471.6 5 472.1 3.9 462.1C3.1 455.1 3.2 453.3 4.5 451.4C6.3 448.6 7.8 448.5 15.1 450.6ZM185.3 460.4C193.3 461.9 199.7 464.5 204 468.1L206.5 470.2L204 469.6C202.6 469.2 197.2 467.9 192 466.5C177.9 463 167.8 461.8 154.2 462.2C143.6 462.5 142 462.3 142 460.9C142 460 142.3 459 142.8 458.5C143.9 457.4 176.3 458.8 185.3 460.4ZM322.5 462.9C316.5 465 306.9 469 301.3 471.9C295.6 474.7 291 476.7 291 476.3C291.1 475 296.6 468.1 299.3 466C304.9 461.6 314.3 459.3 328 459.2H333.5L322.5 462.9ZM472 501.4C471.4 510.1 469.6 528 468 541.2C462.1 588.7 456 642 456 646.7C456 649.3 455.6 652 455.2 652.6C454.7 653.3 449.7 653.1 438.3 651.6C429.4 650.4 421.9 649.3 421.6 649C421.3 648.7 420.1 643.9 418.9 638.5C417.8 633 413 615.2 408.3 599C397 559.9 393 545.6 393 544.9C393 544.6 395.4 544 398.4 543.7C405.6 543 412 539.6 421.5 531.3C438.5 516.6 456.2 493.3 467.2 471.2L472.5 460.5L472.8 473C473 479.9 472.6 492.6 472 501.4ZM335.9 467.8C336.5 469.9 337.3 473 337.6 474.8L338.3 478H332.4C324.6 478 307.6 480.4 297 482.9C292.3 484 288.4 484.7 288.2 484.5C287.6 484 302.4 475.2 308.5 472.4C315.7 469.3 330.8 464.1 333.2 464.1C334.4 464 335.3 465.2 335.9 467.8ZM181.5 467.5C191.9 469.7 206.1 474.3 213 477.8C217.9 480.3 223.1 485.3 221.9 486.5C221.6 486.7 216.1 485.6 209.8 484C190.1 479.1 177.9 477.7 157.3 478.2C136.6 478.7 138.2 479.4 139.8 470.5C140.4 467.5 141.1 466.4 143 465.8C147.2 464.6 172.9 465.7 181.5 467.5ZM188 483.5C204.5 486.2 225.3 491.8 227.3 494.1C228.2 495.3 229 496.7 229 497.3C229 498.5 182 497.6 167.5 496C153.8 494.5 140.4 492.1 138.7 490.7C137.7 489.9 137.4 488.3 137.7 485.8C138.2 482.3 138.4 482.1 142.4 481.7C150 480.8 178.4 482 188 483.5ZM340.4 489.8C340.9 493.2 341.1 496.3 340.8 496.5C340.5 496.8 335.4 496.5 329.4 495.9C319 494.8 300.8 495.1 282.5 496.7C275 497.3 274.6 497.2 275.9 495.6C281.1 489.3 308.3 483 328.5 483.3L339.5 483.5L340.4 489.8ZM409 493.5C409 499.8 404.7 534.8 403.6 537C402.6 539.2 401.8 539.5 397.5 539.5H392.5L392.2 534.2C391.8 526.7 395.1 515.5 401.6 502.2C407.2 491 409 488.8 409 493.5ZM159 499C165.4 500.1 175 501.3 180.5 501.7L190.5 502.5L191.1 518.5C191.5 527.3 192.1 565.2 192.5 602.7L193.3 671H185.2H177.1L170.3 665.1C166.5 661.9 158.9 654.5 153.4 648.8L143.2 638.5L141.6 608.5C140.8 592 139.1 563 137.9 544C136.4 521.8 135.9 506.8 136.4 501.9L137.1 494.2L142.3 495.6C145.2 496.4 152.7 497.9 159 499ZM341.7 501.4C342.7 502.2 344.2 521.3 344.6 540.5C345.2 564.3 344.8 575.6 341.4 619.2L339.7 640.9L333.6 645.9C326.1 652.2 326.6 653.2 325.6 628C324.8 606.5 322.5 569.9 321 555.5C319.9 545.7 314.4 505.4 313.5 501.5C313.1 499.5 313.4 499.5 327.3 500.4C335.1 500.8 341.6 501.3 341.7 501.4ZM310 500.2C310 500.4 311.1 507.9 312.4 517C316.6 545.3 319.1 575.2 321 622.5C321.6 636.2 322.2 649.4 322.5 651.7C323 655.9 322.9 656 314.3 664.5L305.7 673L295.2 671.5C279.1 669.2 272 667.9 272 667.1C272 666.7 270 655.3 267.6 641.9C261.7 609.6 256.7 577 253 547C251.4 533.5 249.6 519.1 249.1 515C248.4 509.6 248.4 507.3 249.3 506.8C250.8 505.9 270.7 502.2 280 501.1C286.9 500.3 310 499.7 310 500.2ZM229.6 511.7C229.3 517.1 227.6 542 226 567C223 612.6 219.5 658.3 218.4 665.1L217.9 668.8L211.2 669.4C207.5 669.8 202.8 670.3 200.7 670.6L197 671.2L197.6 642.8C198.3 614.5 197 561.7 194.7 522.8L193.5 503.1L202 502.7C206.7 502.6 214.9 502.3 220.4 502.2L230.3 502L229.6 511.7ZM141.5 641.9C162.1 659.9 214.4 719.9 220.6 732.7C225.3 742.3 225.1 746.6 217.6 784.1C214 802.5 209.7 824.5 208.2 833L205.4 848.5L195.4 848.3C185 848.2 177.9 846.8 167.7 843C159.1 839.8 159 839.5 159 827C159 814.2 158.3 809 152.4 774.5C146 737.2 143.8 726.2 135.5 692C124.7 647.5 123.5 640.7 125 637C126 634.6 126.8 634 129.4 634C131.9 634 134.4 635.6 141.5 641.9ZM359.4 638.2C360.2 639.5 359.1 651.2 355.1 683.7C346.5 754.5 335.2 837 334 838.5C331.3 841.7 306.9 848 297 848C292.2 848 292.1 847.9 291.1 844.2C288.9 836 277.6 789.2 273 768.9C267.2 743.7 266.8 737.2 270.4 729.3C278.9 711.2 309.6 673.6 334.3 651.2C350.3 636.7 356.4 633.5 359.4 638.2ZM439.8 655.2C448.8 656.7 454.3 658.5 455.1 660.1C455.5 660.9 456.4 664.6 457.1 668.5C457.7 672.3 461 684.7 464.2 696C470.4 717.5 474 735.4 474.2 745.5C474.3 752.4 472.4 756.8 466.2 763.9L462.4 768.2L459.1 760.4C456.7 754.7 456 751.7 456.4 749.2C456.7 747.3 457.2 745.5 457.5 745.2C457.8 744.9 460.3 745.1 463 745.6C465.8 746.2 468 746.4 468 746C468 744.8 464.6 742.3 461.5 741.3C459.3 740.6 457.6 738.7 455.2 734.4C451.4 727.6 451.2 726 453.4 716.7C454.3 712.9 455 709.7 455 709.4C455 709.2 453.9 709.7 452.5 710.6L450 712.2L449.9 706.9L449.8 701.5L448.2 705C447.2 707.4 446.6 711.5 446.6 717.6C446.5 726.3 446.7 726.9 449.9 732.1C453.2 737.2 453.4 738 453.5 746.5C453.5 753.2 454.3 757.7 456.3 764.4C459.7 775.5 459.7 778.4 456.5 781.6C454.1 783.9 453.7 784.1 451.7 782.8C450.5 782 446.2 774.7 442 766.3C437.9 758.1 433.3 749.8 431.9 747.9C430.5 746 428.6 742.2 427.7 739.5C426.7 736.7 423.8 731.1 421.1 726.9C414.1 716 413.7 714.1 415 701.8C416.1 690.9 420.9 656.4 421.6 654.2C422 652.9 428.1 653.2 439.8 655.2ZM82.9 664.6C84.8 671.9 87.6 676.6 94.9 684.5C103.4 693.7 105.5 698 107.4 710C109.2 721.7 110.6 725.8 115.9 733.9C118.2 737.5 120.4 741.9 120.9 743.9C121.6 746.6 125 781.6 125 786.2C125 787.5 121.7 787.9 119.7 786.8C114.7 784.2 109 773.8 106.1 762.1C104.9 757.4 102.2 750.5 100.1 746.6C98 742.7 94.8 736.9 93 733.7L89.8 728L93.4 726.5C98.3 724.4 97.9 723 92.6 723C89 723 87.6 723.6 85.1 726.1C83.4 727.8 81.7 730.3 81.3 731.8C81 733.2 81.4 740.9 82.3 748.9C83.8 763 83.9 763.4 87.8 768.9C93.3 776.7 96.6 783.6 99 792.1C101.6 801.6 101.5 804.3 98.6 807.7C95.4 811.4 95 811 83.8 793.3C76.3 781.5 73.9 778.5 70.7 776.9C65.6 774.3 64.2 770.7 63.1 757.5C61.8 742.3 57 733.3 49.5 731.4L46.5 730.7L50.8 735.4C56.7 741.8 58.6 746.7 60 758.5C61.4 771.2 63.2 776.1 67.6 779.5C72.7 783.4 75.8 786.9 79.4 793C83.5 800 83.9 801.1 83 803.4C82.5 805 81.1 803.7 75.1 795.7C71.1 790.3 65.3 783.8 62.2 781.2C50.2 771.2 47.1 766.8 44.6 756.1C43.8 752.9 41.8 746.6 40.1 742.1C36.3 732.2 36.2 727.1 39.5 714.1C42.6 701.8 44.7 689 45.5 677.3L46.2 668.1L59.9 665C67.4 663.2 74.9 661.4 76.5 661C81.4 659.7 81.7 659.8 82.9 664.6ZM288.5 673.7C296.2 675.1 302.7 676.5 302.9 676.6C303.6 677.2 295.9 686 294.6 686C292.3 686 274.5 677.9 273.3 676.3C272.6 675.4 272 673.8 272 672.8C272 670.5 271.9 670.5 288.5 673.7ZM217.8 675.2C217.5 677 215.6 677.9 203.7 681.4C188.3 685.8 188.7 685.9 183.2 679.2L179.7 675L189.6 674.9C195.1 674.8 202.4 674.4 206 674C217.8 672.7 218.2 672.7 217.8 675.2ZM283.3 685.4C288.1 687.6 292 689.6 292 689.9C292 690.3 290.7 692.1 289.2 693.9L286.4 697.3L279.9 693.9L273.5 690.5L273.2 685.6C273 683 273.3 681 273.8 681.1C274.3 681.3 278.6 683.3 283.3 685.4ZM216.8 685.2C216.5 688.1 215.7 688.9 208 693.1L199.6 697.8L195.9 693.6C193.9 691.4 192.4 689.3 192.5 689.1C192.9 688.7 215 682.2 216.3 682.1C216.8 682 217 683.5 216.8 685.2ZM428.5 748.6L433.3 756.2L431.5 759.4C426.9 767.2 424.6 769.5 413.9 776.7C404.2 783.1 401.7 784.4 397.4 784.8C392.8 785.2 392.1 785 391.5 783.1C390.6 780.2 394 773.5 399.2 767.5C404.7 761.3 411.7 757.8 420.5 757L427.5 756.4L422.8 754.1C420.1 752.9 418 751.3 418 750.7C418 749.6 423 741 423.6 741C423.7 741 425.9 744.4 428.5 748.6ZM440.3 771.4C442.9 777.5 444.8 782.5 444.7 782.6C444.6 782.7 440.8 785.3 436.2 788.4C423.1 797.3 406.5 805 400.5 805C399.2 805 397.7 804.3 397 803.5C394 799.8 401 791 415.2 780.4L424.2 773.7L429.1 775.2C434.9 777.1 436.3 776 432 773C430.4 771.8 429 770.5 429 770.1C429 769.1 435 759.7 435.4 760.1C435.6 760.3 437.8 765.4 440.3 771.4ZM178.2 850C182.2 851.1 190.1 852.4 195.7 852.7L205.9 853.3L206.4 856.9C210.1 881.1 211.1 891.2 210 896.7C208.1 907.5 215.7 906.5 131.7 906.5C68.6 906.5 58.1 906.3 55.5 905C52 903.2 50.1 898.8 51.6 896.2C53.7 892.7 65.2 888 87.5 881.5C110.3 874.9 134.8 866 142.5 861.5C148.1 858.3 153.8 852.3 156.6 846.7L159 842L164.9 845C168.2 846.6 174.1 848.9 178.2 850ZM335.3 848.5C336.1 854.4 339.2 860.3 342.7 862.7C349 867.1 360.7 871.4 386.9 879.1C430.8 891.9 431.3 892.1 432.4 895.1C433.8 899.1 432.4 902.7 428.7 904.7C425.7 906.4 420.4 906.5 358.7 906.8L292 907.1L289.5 904.6C286.4 901.5 286.3 897.2 289 880.5C290.1 873.9 291.2 864.6 291.6 859.9L292.3 851.3L302.4 850.7C308.7 850.3 316.4 849 323 847.1C328.8 845.6 333.8 844.2 334.1 844.1C334.5 844.1 335 846 335.3 848.5Z" fill="black"/>
<path d="M212.2 294C207.5 298.4 211.3 307 218 307C222 307 226 303.1 226 299.2C226 292.9 217 289.6 212.2 294Z" fill="#5753C9"/>
<path d="M216.4 333C213.6 334.1 211 337.8 211 340.8C211 344.1 215.3 348 218.9 348C223.2 348 224.9 347.1 226.6 343.9C228.4 340.3 227.6 336.6 224.3 334C221.5 331.9 219.7 331.6 216.4 333Z" fill="#5753C9"/>
<path d="M298.2 312C293.1 316.8 296.6 326 303.5 326C310.8 326 314.8 317 309.7 312.2C306.7 309.3 301.1 309.3 298.2 312Z" fill="#5753C9"/>
<path d="M285 327.3C281.7 329 280.4 333.9 282.1 337.6C283.2 339.9 284.3 340.6 287.3 340.8C292.8 341.3 296 338.9 296 334.4C296 332 295.2 330.1 293.5 328.5C290.8 325.7 288.7 325.4 285 327.3Z" fill="#5753C9"/>
</svg>
