<svg width="129" height="122" viewBox="0 0 129 122" fill="none" xmlns="http://www.w3.org/2000/svg">
<path fill-rule="evenodd" clip-rule="evenodd" d="M128.633 30.767C128.905 31.219 128.861 30.742 128.902 37.305C128.932 42.17 129.366 116.221 128.066 120.934C128.035 121.116 127.961 121.289 127.851 121.437C127.74 121.586 127.596 121.706 127.431 121.789C127.265 121.871 127.082 121.913 126.897 121.912C126.712 121.911 126.53 121.866 126.366 121.781C122.907 119.524 119.323 117.463 115.633 115.607C86.346 100.621 35.167 87.862 4.33799 85.059C4.05745 85.0336 3.79262 84.9182 3.58299 84.73C3.37426 84.5404 3.23048 84.2899 3.17199 84.014C3.06299 83.066 0.371997 9.014 1.12899 2.514C1.12467 2.11408 1.26099 1.72535 1.51414 1.41571C1.76729 1.10608 2.12119 0.895234 2.514 0.820004C13.15 -3.014 123.834 23.224 128.633 30.767ZM127.794 31.421C127.795 31.4458 127.799 31.4705 127.803 31.495H127.813C127.806 31.4343 127.784 31.3763 127.749 31.326L127.755 31.335C124.715 26.607 74.455 15.035 68.977 13.792C60.516 11.878 12.045 1.24 3.59199 3.105C3.67599 7.397 2.679 -4.632 5.72 82.556C33.208 85.186 77.728 95.889 107.355 109.063C122.171 115.689 126.099 119.363 126.141 118.883C127.326 105.283 127.694 31.421 127.794 31.421ZM128.583 31.842H128.578H128.586C128.509 31.716 128.03 30.893 128.583 31.842Z" fill="black"/>
<path fill-rule="evenodd" clip-rule="evenodd" d="M115.021 39.041C115.049 40.49 114.237 95.353 113.952 95.206C107.545 91.912 81.042 84.151 77.352 82.406C76.74 82.116 76.962 32.172 77.472 29.906C78.135 26.973 115.018 38.881 115.021 39.041Z" fill="#5753C9"/>
<path fill-rule="evenodd" clip-rule="evenodd" d="M78.9 28.344C85.468 28.444 112.754 37.469 115.187 38.544C115.29 38.5811 115.38 38.6489 115.443 38.7382C115.507 38.8276 115.542 38.9343 115.543 39.044C115.443 39.044 115.116 39.049 115.55 39.044C115.628 41.991 115.668 92.544 115.172 95.421C115.142 95.5946 115.074 95.7596 114.975 95.9049C114.875 96.0502 114.745 96.1723 114.594 96.263C114.418 96.3654 114.221 96.4263 114.018 96.441C113.345 96.454 113.837 96.321 109.466 94.65C100.345 91.195 84.034 86.35 78.16 84.15C77.5142 83.9848 76.9085 83.6909 76.379 83.286C75.93 82.712 75.785 82.799 75.71 71.086C75.673 64.669 75.746 33.942 76.359 29.848C76.557 28.61 77.66 28.33 78.9 28.344ZM78.528 30.552C78.255 34.886 78.137 74.98 78.534 81.39C78.575 81.976 103.698 89.376 112.848 93.331C112.943 90.904 114.47 40.239 114.488 39.398C109.636 37.764 83.025 30 78.526 30.552H78.528ZM78.212 30.615L78.232 30.606L78.212 30.615ZM78.212 30.615L78.234 30.606L78.212 30.615ZM78.235 30.606L78.221 30.613L78.236 30.606H78.235ZM78.217 30.612L78.237 30.605L78.217 30.612Z" fill="#212121"/>
<path fill-rule="evenodd" clip-rule="evenodd" d="M17.478 16.381C24.514 16.519 60.759 23.549 64.597 26.404C64.7392 26.4876 64.8572 26.6066 64.9396 26.7495C65.0219 26.8923 65.0659 27.0541 65.067 27.219C65.03 28.412 65.442 40.141 65.344 43.957C65.311 45.039 65.359 45.709 64.509 46.057C60.881 47.422 26.466 40.539 17.637 39.285C15.332 38.968 14.774 39.47 14.649 35.939C14.509 31.656 14.843 22.546 15.222 18.972C15.419 17.143 15.574 16.363 17.478 16.381ZM17.3 36.6C24.812 37.546 58.749 44.518 63.516 44.356C63.761 41.789 63.9 29.687 63.994 27.456C64.104 25.443 22.435 19.135 17.819 18.956C17.3468 24.8247 17.1736 30.7137 17.3 36.6Z" fill="#212121"/>
<path fill-rule="evenodd" clip-rule="evenodd" d="M16.381 49.376C23.417 49.514 59.663 56.544 63.5 59.399C63.6422 59.4826 63.7602 59.6016 63.8426 59.7445C63.9249 59.8873 63.9689 60.0491 63.97 60.214C63.933 61.407 64.345 73.135 64.247 76.952C64.214 78.034 64.262 78.704 63.412 79.047C59.784 80.412 25.369 73.53 16.54 72.275C14.24 71.959 13.677 72.461 13.552 68.93C13.412 64.647 13.746 55.536 14.125 51.963C14.322 50.138 14.477 49.358 16.381 49.376ZM16.2 69.6C23.712 70.546 57.649 77.518 62.416 77.356C62.661 74.789 62.8 62.687 62.894 60.456C63.004 58.443 21.335 52.135 16.719 51.956C16.2468 57.8247 16.0736 63.7137 16.2 69.6Z" fill="#212121"/>
<path d="M111.1 45.9986C109.5 44.3987 107.373 43.5176 105.111 43.5176C102.848 43.5176 100.721 44.3987 99.1211 45.9986C97.5207 47.5989 96.6244 49.7963 96.6423 52.0583L79.0076 72.8093C78.8156 73.0353 78.8292 73.3708 79.0389 73.5805L80.8267 75.3682L78.1667 78.0281C77.9444 78.2505 77.9444 78.611 78.1667 78.8332C78.2779 78.9444 78.4236 79 78.5693 79C78.715 79 78.8607 78.9444 78.9719 78.8333L81.6319 76.1733L83.5184 78.0599C83.6291 78.1706 83.7749 78.2267 83.9211 78.2267C84.0519 78.2267 84.183 78.1818 84.2896 78.0912L105.041 60.4565C105.063 60.4567 105.085 60.4568 105.107 60.4568C107.345 60.4568 109.516 59.5625 111.1 57.9777C112.7 56.3778 113.581 54.2507 113.581 51.9881C113.581 49.7255 112.7 47.5984 111.1 45.9986ZM97.2501 53.1015L103.997 59.8488L100.124 63.1404L93.9586 56.9746L97.2501 53.1015ZM83.9522 76.8837L80.2152 73.1467L93.2188 57.8451L99.2538 63.8801L83.9522 76.8837ZM110.295 57.1726C108.895 58.5728 107.047 59.3262 105.075 59.3158L97.7829 52.0242C97.7714 50.0506 98.5261 48.2038 99.9262 46.8035C101.311 45.4187 103.152 44.6561 105.111 44.6561C107.069 44.6561 108.91 45.4187 110.295 46.8035C111.68 48.1884 112.443 50.0296 112.443 51.9881C112.443 53.9465 111.68 55.7878 110.295 57.1726Z" fill="#F4F4F4"/>
<path d="M81.8427 50.678C83.3338 50.678 84.5469 49.465 84.5469 47.9738V42.1386H90.809V45.7711C90.3668 45.4558 89.8266 45.2697 89.2435 45.2697C87.7524 45.2697 86.5393 46.4827 86.5393 47.9738C86.5393 49.465 87.7524 50.678 89.2435 50.678C90.7345 50.678 91.9476 49.465 91.9476 47.9738V41.5693C91.9476 41.255 91.6927 41 91.3783 41H83.9776C83.6632 41 83.4083 41.255 83.4083 41.5693V45.7711C82.9661 45.4558 82.4259 45.2697 81.8427 45.2697C80.3517 45.2697 79.1386 46.4827 79.1386 47.9738C79.1386 49.465 80.3517 50.678 81.8427 50.678ZM89.2435 49.5394C88.3802 49.5394 87.6779 48.8371 87.6779 47.9738C87.6779 47.1106 88.3802 46.4083 89.2435 46.4083C90.1067 46.4083 90.809 47.1106 90.809 47.9738C90.809 48.8371 90.1067 49.5394 89.2435 49.5394ZM81.8427 46.4083C82.706 46.4083 83.4083 47.1106 83.4083 47.9738C83.4083 48.8371 82.706 49.5394 81.8427 49.5394C80.9795 49.5394 80.2772 48.8371 80.2772 47.9738C80.2772 47.1106 80.9795 46.4083 81.8427 46.4083Z" fill="#F4F4F4"/>
</svg>
