<svg width="262" height="290" viewBox="0 0 262 290" fill="none" xmlns="http://www.w3.org/2000/svg">
<path fill-rule="evenodd" clip-rule="evenodd" d="M65.849 218.984C62.842 222.049 59.634 224.91 56.34 227.663C53.089 230.379 49.96 233.314 46.52 235.793C45.72 236.372 44.881 235.129 45.509 234.472C48.465 231.372 51.856 228.672 55.009 225.786C58.1415 222.91 61.4206 220.197 64.833 217.659C65.627 217.071 66.491 218.33 65.849 218.984ZM38.132 175.823C32.08 178.023 25.923 180.008 19.692 181.644C13.417 183.292 6.94599 184.083 0.832994 185.716C0.651263 185.778 0.497217 185.902 0.398174 186.066C0.299131 186.23 0.261491 186.424 0.291929 186.614C0.322367 186.803 0.418915 186.976 0.564453 187.101C0.709991 187.226 0.895115 187.295 1.08699 187.297C7.53999 187.475 14.261 185.821 20.469 184.212C26.8107 182.571 32.9868 180.346 38.918 177.565C39.9 177.1 39.153 175.452 38.132 175.823ZM43.632 135.012C39.3498 132.588 34.9359 130.404 30.411 128.471C25.759 126.371 21.273 124.759 16.611 122.839C15.819 122.513 15.185 123.832 15.963 124.218C20.423 126.435 24.55 128.733 29.137 130.831C33.6176 132.99 38.2151 134.898 42.908 136.545C43.1042 136.603 43.3147 136.588 43.5013 136.505C43.6879 136.421 43.8385 136.273 43.9259 136.088C44.0132 135.903 44.0316 135.693 43.9777 135.496C43.9239 135.299 43.8012 135.127 43.632 135.012ZM75.206 147.97C75.506 146.786 73.806 146.285 73.243 147.282C71.051 151.143 70.313 155.837 70.137 160.216C69.965 164.458 70.224 169.429 72.409 173.178C72.864 173.959 74.264 173.501 74.063 172.642C73.057 168.602 72.6473 164.437 72.847 160.279C73 156.03 74.161 152.055 75.206 147.97ZM81.778 131.955C79.603 133.408 76.378 138.236 75.891 141.07C75.8172 141.333 75.8446 141.613 75.968 141.857C76.0913 142.1 76.3015 142.289 76.557 142.384C76.8125 142.48 77.0946 142.477 77.3476 142.374C77.6005 142.272 77.8059 142.078 77.923 141.832C79.2325 138.886 80.8831 136.104 82.841 133.543C83.8 132.384 82.6 131.409 81.778 131.955ZM80.186 202.319C74.1973 197.29 69.4137 190.981 66.1878 183.858C62.9619 176.734 61.376 168.977 61.547 161.159C61.7908 153.218 63.7987 145.431 67.4252 138.362C71.0518 131.294 76.2059 125.121 82.514 120.291C82.6995 120.144 82.8214 119.931 82.8544 119.697C82.8874 119.462 82.829 119.224 82.6914 119.031C82.5537 118.839 82.3472 118.706 82.1147 118.661C81.8821 118.617 81.6413 118.663 81.442 118.791C74.3913 123.84 68.6614 130.514 64.7375 138.248C60.8135 145.982 58.8112 154.547 58.9 163.219C59.156 183.062 69.03 197.711 84.511 208.835C93.011 214.946 102.711 221.394 104.881 232.402C105.072 233.374 106.555 233.307 106.455 232.272C105.066 217.87 90.033 210.574 80.186 202.319ZM201.893 145.448C201.457 144.57 199.922 145.239 200.299 146.159C202.548 151.601 203.65 157.448 203.537 163.335C203.423 169.222 202.096 175.022 199.638 180.373C193.531 193.31 182.162 198.1 173.466 208.189C169.086 213.271 165.466 219.689 166.102 226.62C166.115 226.832 166.21 227.031 166.366 227.176C166.522 227.32 166.728 227.399 166.94 227.395C167.153 227.392 167.356 227.307 167.508 227.158C167.659 227.008 167.747 226.807 167.754 226.594C168.176 218.329 172.654 212.179 178.205 206.788C186.963 198.275 196.384 193.054 201.83 181.35C207.069 170.091 207.454 156.667 201.893 145.448ZM210.525 220.698C206.525 218.345 201.311 215.051 197.105 213.364C196.161 212.985 195.766 214.307 196.421 214.847C199.909 217.724 205.326 220.728 209.304 223.115C213.686 225.744 218.052 228.399 222.628 230.683C222.864 230.821 223.144 230.863 223.41 230.798C223.676 230.733 223.906 230.568 224.052 230.336C224.198 230.105 224.248 229.826 224.191 229.558C224.135 229.29 223.977 229.055 223.75 228.902C219.492 225.929 215 223.328 210.525 220.7V220.698ZM258.23 167.277C252.987 166.757 247.719 166.528 242.45 166.591C237.118 166.505 231.789 166.458 226.458 166.603C225.535 166.628 225.458 168.182 226.393 168.249C231.644 168.624 236.905 168.815 242.168 168.963C247.497 169.266 252.838 169.273 258.168 168.985C258.372 168.959 258.56 168.862 258.698 168.71C258.837 168.558 258.917 168.363 258.924 168.157C258.932 167.952 258.866 167.751 258.739 167.59C258.612 167.428 258.431 167.318 258.23 167.277ZM230.442 124.477C234.881 123.24 239.211 121.643 243.391 119.703C247.624 117.855 251.651 115.569 255.407 112.881C256.351 112.158 255.271 110.767 254.27 111.23C250.17 113.125 246.291 115.47 242.21 117.407C238.301 119.262 233.888 121.419 229.925 123.047C229.768 123.137 229.648 123.28 229.585 123.45C229.523 123.62 229.523 123.807 229.585 123.977C229.646 124.147 229.766 124.29 229.923 124.381C230.08 124.472 230.264 124.504 230.442 124.473V124.477ZM170.377 82.377C158.506 73.434 148.689 69.851 134.097 66.721C133.255 66.54 133.505 65.231 134.328 65.26C139.805 65.555 145.204 66.6878 150.337 68.619C146.712 60.466 139.774 54.541 133.886 53.099C127.265 55.819 117.73 63.744 114.846 67.216C118.528 78.016 107.512 86.968 94.489 81.758C86.7795 84.9126 79.6601 89.3504 73.433 94.883C78.969 97.383 84.743 107.147 86.524 115.395C94.38 112.465 103.497 109.317 112.071 110.186C120.645 111.055 147.127 124.295 158.848 126.9C153.114 117.812 157.343 96.246 170.377 82.369V82.377Z" fill="#5753C9"/>
<path fill-rule="evenodd" clip-rule="evenodd" d="M102.16 235.943C111.276 249.117 106.46 268.812 116.912 281.522C128.902 296.104 153.602 290.204 160.648 276.457C167.683 262.731 163.008 253.157 169.591 230.734C148.827 243.029 115.978 240.714 102.16 235.943ZM156.551 268.833C152.765 273.66 146.632 276.915 140.916 278.81C135.021 280.914 128.67 281.397 122.525 280.21C122.346 280.157 122.191 280.042 122.09 279.885C121.988 279.728 121.946 279.54 121.971 279.355C121.996 279.17 122.087 279 122.226 278.876C122.366 278.751 122.545 278.681 122.732 278.678C128.676 279.056 134.635 278.235 140.256 276.264C145.874 274.378 151.068 271.411 155.545 267.529C156.339 266.881 157.073 268.168 156.551 268.833ZM158.98 256.179C154.952 261.694 148.963 264.997 142.465 266.817C137.893 268.097 124.185 270.096 119.329 268.736C118.549 268.517 118.629 267.254 119.359 267.26C126.737 267.117 134.076 266.16 141.244 264.405C147.416 262.788 153.056 259.579 157.6 255.1C158.291 254.392 159.574 255.367 158.98 256.179V256.179ZM159.013 242.727C159.731 242.279 160.78 243.185 160.101 243.91C155.601 248.716 146.286 252.71 139.95 254.38C132.547 256.424 124.786 256.826 117.212 255.556C116.194 255.378 116.512 253.929 117.501 254.009C124.84 254.646 132.233 253.988 139.344 252.064C147.76 249.7 152.251 246.946 159.013 242.727V242.727ZM156.193 147.308C150.455 144.881 147.901 147.028 146.371 152.557C143.496 162.984 141.813 173.703 141.356 184.509C135.155 185.604 128.836 185.868 122.565 185.292C121.306 179.65 117.045 161.557 113.865 157.043C111.783 154.083 108.472 153.697 105.639 155.826C102.589 158.118 97.539 167.29 95.781 171.103C93.281 176.515 94.717 179.362 99.932 181.72C106.461 184.663 113.403 186.586 120.516 187.42C122.024 194.308 123.232 201.145 124.109 208.149C125.048 215.636 125.629 223.449 126.219 230.995C126.233 231.189 126.321 231.371 126.465 231.502C126.609 231.633 126.798 231.704 126.993 231.699C127.188 231.694 127.373 231.614 127.511 231.476C127.648 231.338 127.727 231.152 127.731 230.957C127.896 223.149 127.464 215.34 126.439 207.598C125.602 200.921 124.473 194.257 123.078 187.673C129.148 188.187 135.258 187.945 141.268 186.954C140.88 200.365 142.388 213.764 145.746 226.754C146.106 228.121 148.185 227.505 147.846 226.137C144.653 213.192 143.225 199.875 143.6 186.548C151.3 185.013 165.035 180.391 170.206 173.982C174.873 168.197 172.385 161.269 167.992 156.082C164.788 152.287 160.749 149.285 156.193 147.308V147.308ZM103.021 180.576C97.071 178.149 95.144 177.301 98.502 170.81C100.291 167.353 103.714 160.936 106.369 158.31C107.839 156.859 109.833 156.11 111.415 157.817C114.215 160.849 118.947 180.45 119.99 184.987C114.167 184.257 108.463 182.774 103.021 180.576V180.576ZM168.451 172.376C164.135 178.188 150.828 182.551 143.699 184.059C144.116 175.192 145.944 160.24 149.111 151.545C150.111 148.811 151.563 148.295 154.311 149.194C160.086 151.088 166.897 156.92 169.356 162.383C170.148 163.968 170.483 165.743 170.323 167.508C170.163 169.273 169.515 170.959 168.451 172.376V172.376ZM107.065 41.212C104.159 42.291 103.755 45.59 104.434 48.351C103.928 48.297 103.416 48.3589 102.937 48.5322C102.458 48.7055 102.025 48.9855 101.67 49.351C100.317 46.6 97.186 44.213 94.162 45.93C91.615 47.376 91.499 51.217 92.208 53.71C91.008 54.19 89.535 54.446 88.263 54.942C88.1086 55.0177 87.9863 55.146 87.9181 55.3038C87.8499 55.4616 87.8403 55.6386 87.8909 55.8029C87.9415 55.9672 88.0491 56.108 88.1943 56.2001C88.3395 56.2921 88.5128 56.3293 88.683 56.305C89.944 56.073 91.493 55.605 92.783 55.257C94.129 58.191 96.871 60.98 100.339 59.215C103.791 57.459 103.429 54.037 102.331 50.933C102.619 50.5236 103.027 50.2129 103.498 50.0428C103.969 49.8726 104.481 49.8514 104.964 49.982C106.004 52.625 108.504 56.176 111.78 54.591C115.056 53.006 114.454 48.691 113.531 45.909C112.608 43.127 110.282 40.019 107.065 41.212ZM99.722 57.738C96.886 59.238 94.764 56.259 93.957 53.952C93.288 52.036 92.965 48.625 94.898 47.357C97.428 45.697 99.864 48.934 100.654 51C101.535 53.306 102.351 56.35 99.722 57.738ZM111.142 53.146C108.421 54.289 106.925 51.063 106.124 49.046C105.292 46.953 105.052 43.529 107.597 42.674C110.119 41.826 111.645 44.962 112.238 46.874C112.854 48.866 113.265 52.254 111.142 53.146ZM97.91 54.053C98.28 54.867 98.233 55.464 97.762 55.853C97.131 56.382 96.5 55.953 96.102 55.271C95.825 54.796 95.527 53.694 96.262 53.237C96.888 52.852 97.662 53.508 97.91 54.053ZM110.01 49.873C110.099 50.1561 110.109 50.4581 110.038 50.7464C109.968 51.0346 109.82 51.298 109.61 51.508C108.969 51.93 108.268 51.202 108.077 50.587C107.843 49.837 107.885 49.021 108.377 48.695C109.154 48.187 109.842 49.241 110.011 49.873H110.01ZM106.818 57.5C107.228 57.115 107.37 56.833 107.007 56.364C106.316 55.6016 105.528 54.933 104.663 54.375C103.994 53.905 104.72 52.8 105.423 53.175C106.214 53.6103 106.943 54.1483 107.593 54.775C109.331 56.423 109.103 57.928 107.179 59.284C106.412 59.8835 105.482 60.2394 104.511 60.306C104.365 60.2745 104.23 60.2015 104.124 60.0958C104.018 59.9901 103.944 59.8561 103.912 59.7098C103.88 59.5634 103.89 59.4109 103.942 59.2704C103.994 59.1298 104.085 59.0072 104.205 58.917C104.82 58.424 105.945 58.32 106.818 57.5ZM101.286 63.751C102.629 63.8826 103.98 63.6006 105.158 62.943C106.083 62.43 106.551 63.598 105.887 64.113C104.479 64.9711 102.844 65.3825 101.197 65.293C99.5702 65.2806 97.9893 64.7523 96.682 63.784C96.063 63.267 96.655 62.109 97.421 62.515C98.5796 63.2565 99.9121 63.6819 101.286 63.749V63.751ZM97.948 70.016C102.167 70.455 106.985 70.94 110.548 68.145C114.904 64.734 113.235 60.298 111.675 56.73C111.251 55.76 112.593 55.375 112.969 56.138C115.176 60.609 116.093 65.517 111.815 69.085C107.859 72.385 102.553 72.098 97.755 71.413C96.965 71.3 97.159 69.932 97.948 70.014V70.016ZM137.871 50.864C141.787 48.056 145.891 45.447 148.208 41.056C150.74 36.256 150.931 30.673 151.082 25.364C149.29 25.5422 147.501 25.0097 146.098 23.8811C144.695 22.7525 143.792 21.1182 143.582 19.33C143.559 19.1498 143.604 18.9676 143.708 18.8188C143.813 18.6701 143.969 18.5656 144.146 18.5257C144.323 18.4859 144.509 18.5135 144.667 18.6032C144.825 18.693 144.944 18.8384 145 19.011C145.176 20.3493 145.848 21.5727 146.884 22.4385C147.919 23.3043 149.243 23.7492 150.591 23.685C152.221 23.591 152.812 23.744 152.774 25.085C152.613 30.757 152.38 36.625 149.726 41.775C147.369 46.351 143.015 49.488 138.714 52.098C137.991 52.539 137.184 51.354 137.871 50.862V50.864ZM152.421 2.645C151.842 2.045 152.721 1.045 153.388 1.545C155.207 2.99185 156.622 4.88253 157.498 7.035C158.274 8.852 159.005 11.924 158.579 13.867C158.515 14.0434 158.395 14.194 158.237 14.2963C158.08 14.3986 157.893 14.447 157.706 14.4341C157.519 14.4212 157.341 14.3479 157.199 14.225C157.057 14.1022 156.959 13.9365 156.919 13.753C156.656 11.313 156.886 10.165 155.896 7.706C155.082 5.80616 153.901 4.08563 152.421 2.643V2.645ZM160.6 13.87C161.474 11.8288 161.995 9.65382 162.141 7.438C162.21 5.21548 161.891 2.99799 161.198 0.885003C160.965 0.0610031 162.165 -0.351997 162.587 0.379003C163.598 2.127 163.938 5.479 163.867 7.502C163.851 9.95825 163.253 12.3758 162.122 14.556C162.012 14.7245 161.845 14.848 161.652 14.9044C161.458 14.9608 161.251 14.9463 161.068 14.8636C160.884 14.7809 160.736 14.6353 160.65 14.4532C160.565 14.271 160.547 14.0642 160.6 13.87V13.87ZM163.064 16.898C164.46 15.7904 165.656 14.4505 166.597 12.937C167.52 11.3726 168.218 9.68604 168.671 7.927C168.709 7.73861 168.819 7.57248 168.977 7.46421C169.136 7.35594 169.331 7.31412 169.52 7.34772C169.709 7.38132 169.878 7.48766 169.99 7.64397C170.101 7.80028 170.147 7.99413 170.118 8.184C169.823 10.1734 169.12 12.0802 168.051 13.784C167.03 15.4802 165.726 16.9887 164.195 18.244C164.501 22.877 164.67 27.524 164.878 32.162C165.584 47.882 164.642 53.715 151.094 64.219C150.194 64.919 149.194 63.462 150.087 62.768C163.634 52.241 163.721 46.712 163.096 31.284C162.919 26.893 162.69 22.501 162.604 18.108C162.597 17.8859 162.635 17.6648 162.715 17.4574C162.794 17.25 162.914 17.0605 163.068 16.9L163.064 16.898ZM82.5 68.59C74.826 77.924 70.406 87.107 70.974 99.449C70.9983 99.6479 70.9425 99.8483 70.819 100.006C70.6955 100.164 70.5144 100.266 70.3155 100.29C70.1166 100.315 69.9162 100.259 69.7584 100.136C69.6005 100.012 69.4983 99.8309 69.474 99.632C67.874 87.998 73.658 76.086 81.136 67.532C81.871 66.7 83.212 67.728 82.5 68.59ZM83.258 115.022C79.025 117.363 70.604 119.851 65.771 120.564C39.924 124.381 47.581 96.212 55.629 83.264C59.8863 76.4201 64.7374 69.9639 70.126 63.97C67.8096 57.7273 67.618 50.8947 69.581 44.532C69.913 43.496 71.557 43.178 71.15 45.068C69.525 52.611 69.779 55.968 71.562 62.988C71.7423 63.4089 71.7956 63.8733 71.7153 64.3241C71.635 64.7749 71.4246 65.1923 71.11 65.525C64.4611 72.3101 58.9262 80.1032 54.71 88.616C48.51 101.607 44.674 122.216 66.273 118.671C72.329 117.678 76.903 115.471 82.558 113.749C83.3 113.524 84.03 114.6 83.261 115.022H83.258ZM219.718 138.977C221.234 142.313 226.533 152.694 226.546 155.711C226.563 159.765 222.669 162.1 219.433 158.956C215.503 155.14 213.801 150.9 208.766 146.79C205.647 144.244 201.531 142.363 199.324 138.979C198.483 137.771 197.958 136.371 197.798 134.908C197.638 133.444 197.848 131.964 198.408 130.603C198.778 129.69 200.308 130.144 200.069 131.103C199.734 132.286 199.661 133.527 199.855 134.741C200.05 135.954 200.507 137.111 201.194 138.13C202.95 140.553 207.394 142.851 209.983 144.974C215.197 149.242 216.593 152.474 220.569 156.951C222.529 159.158 224.436 158.243 224.444 155.685C224.45 153.392 219.233 143.524 217.637 140.126C216.277 137.226 214.245 133.657 213.537 130.677C213.297 129.677 214.746 128.444 215.319 129.99C216.562 133.353 218.375 136.017 219.721 138.977H219.718ZM261.708 55.419C261.247 60.572 255.903 81.019 254.677 84.897C252.405 92.088 245.506 91.364 239.942 88.73C238.96 88.265 239.601 86.716 240.617 86.976C244.796 88.043 250.687 89.805 252.374 84.212C254.08 78.554 259.449 60.412 259.582 55.375C259.623 53.837 258.651 53.275 257.468 54.196C253.468 57.296 247.977 67.025 245.261 71.537C244.832 72.251 243.519 71.837 243.829 70.987C245.376 66.753 252.737 54.581 256.678 52.213C257.204 51.8621 257.821 51.6717 258.453 51.6651C259.086 51.6584 259.706 51.8358 260.239 52.1755C260.773 52.5153 261.196 53.0027 261.457 53.5786C261.718 54.1545 261.807 54.7939 261.711 55.419H261.708ZM195.857 128.2C196.475 122.922 196.79 117.614 196.798 112.3C201.203 102.193 204.728 90.454 207.708 79.87C212.273 81.2811 216.7 83.1081 220.931 85.328C220.897 93.865 219.025 123.634 217.455 126.251C212.146 129.07 199.33 128.527 195.857 128.2ZM241.006 68.941C240.898 75.562 236.123 87.308 234.606 90.606C230.229 87.319 215.83 80.228 207.306 77.474C207.031 77.3857 206.733 77.4098 206.476 77.541C206.219 77.6722 206.025 77.8998 205.935 78.174C203.657 86.474 201.276 94.774 198.288 102.851C193.111 116.841 185.224 129.626 162.324 124.951C149.424 99.88 194.934 51.515 201.724 50.099C210.183 48.333 235.8 64.6 241.006 68.943V68.941ZM96.819 79.141C95.96 76.179 90.219 68.119 88.244 66.005C88.6909 65.6917 89.052 65.2711 89.294 64.7818C89.536 64.2926 89.6512 63.7504 89.629 63.205C89.552 62.391 88.286 62.144 88.123 63.045C88.0888 63.493 87.9362 63.9238 87.6807 64.2934C87.4252 64.6629 87.0761 64.9579 86.669 65.1481C86.262 65.3383 85.8117 65.4168 85.3643 65.3757C84.9169 65.3346 84.4885 65.1752 84.123 64.914C82.107 63.64 80.684 60.059 81.723 57.763C81.8576 57.5011 82.0472 57.2714 82.2787 57.0894C82.5102 56.9074 82.7782 56.7775 83.0644 56.7085C83.3507 56.6395 83.6485 56.633 83.9374 56.6896C84.2264 56.7461 84.4998 56.8642 84.739 57.036C84.8931 57.1328 85.0751 57.1755 85.2561 57.1574C85.4372 57.1393 85.6071 57.0614 85.739 56.936C87.1494 55.1142 88.1654 53.0189 88.7225 50.7833C89.2796 48.5477 89.3656 46.2206 88.975 43.95C94.3203 43.5867 99.5383 42.1545 104.32 39.738C110.067 36.831 114.35 33.583 112.671 25.381C111.671 20.481 107.656 15.238 101.3 16.728C93.283 18.607 78.915 31.798 78.236 39.753C75.519 40.362 73.261 41.669 72.765 44.597C71.875 49.855 75.941 56.009 79.853 59.113C79.733 62.951 82.277 67.831 86.878 66.743C90.0866 70.9132 92.9863 75.3123 95.554 79.905C96 80.712 97.035 79.888 96.819 79.141V79.141ZM90.791 27.129C93.2178 24.2974 96.2798 22.0797 99.727 20.657C102.657 19.418 107.568 19.264 107.948 23.341C107.944 23.5317 107.878 23.716 107.761 23.8659C107.643 24.0159 107.479 24.1234 107.295 24.1722C107.11 24.221 106.915 24.2085 106.739 24.1364C106.562 24.0644 106.414 23.9368 106.316 23.773C104.947 20.715 101.516 21.794 99.151 22.948C96.4643 24.3251 93.9882 26.0791 91.798 28.157C91.6602 28.2825 91.479 28.3496 91.2927 28.3443C91.1064 28.339 90.9294 28.2616 90.7989 28.1284C90.6685 27.9953 90.5948 27.8167 90.5933 27.6303C90.5918 27.4439 90.6627 27.2642 90.791 27.129V27.129ZM144.781 14.122C145.062 13.2862 145.542 12.5308 146.178 11.9203C146.815 11.3098 147.59 10.8623 148.436 10.616C149.283 10.3696 150.177 10.3317 151.042 10.5055C151.906 10.6793 152.716 11.0596 153.402 11.614C154.329 12.3418 154.988 13.3568 155.275 14.4996C155.563 15.6424 155.462 16.8484 154.99 17.928C154.914 18.1125 154.773 18.2633 154.595 18.3527C154.416 18.442 154.211 18.464 154.018 18.4145C153.824 18.3651 153.655 18.2475 153.541 18.0834C153.427 17.9192 153.376 17.7196 153.398 17.521C153.922 15.341 153.37 13.213 151.098 12.386C150.141 12.0763 149.102 12.1416 148.191 12.5685C147.28 12.9955 146.565 13.7523 146.191 14.686C146.116 14.873 145.97 15.0226 145.785 15.1019C145.6 15.1812 145.391 15.1838 145.204 15.109C145.017 15.0342 144.867 14.8882 144.788 14.7031C144.709 14.518 144.706 14.309 144.781 14.122V14.122Z" fill="black"/>
</svg>
