<svg width="214" height="161" viewBox="0 0 214 161" fill="none" xmlns="http://www.w3.org/2000/svg">
<path fill-rule="evenodd" clip-rule="evenodd" d="M122.405 82.3769C110.534 73.4339 100.717 69.8509 86.1249 66.7209C85.2829 66.5399 85.5329 65.2309 86.3559 65.2599C91.8329 65.5549 97.2319 66.6877 102.365 68.6189C98.7399 60.4659 91.8019 54.5409 85.9139 53.0989C79.2929 55.8189 69.7579 63.7439 66.8739 67.2159C70.5559 78.0159 59.5399 86.9679 46.5169 81.7579C38.8074 84.9125 31.688 89.3503 25.4609 94.8829C30.9969 97.3829 36.7709 107.147 38.5519 115.395C46.4079 112.465 55.5249 109.317 64.0989 110.186C72.6729 111.055 99.1549 124.295 110.876 126.9C105.142 117.812 109.371 96.2459 122.405 82.3689V82.3769Z" fill="#01AAB8"/>
<path fill-rule="evenodd" clip-rule="evenodd" d="M59.0929 41.2119C56.1869 42.2909 55.7829 45.5899 56.4619 48.3509C55.9559 48.2969 55.4439 48.3588 54.9649 48.5321C54.4859 48.7054 54.0529 48.9854 53.6979 49.3509C52.3449 46.5999 49.2139 44.2129 46.1899 45.9299C43.6429 47.3759 43.5269 51.2169 44.2359 53.7099C43.0359 54.1899 41.5629 54.4459 40.2909 54.9419C40.1365 55.0176 40.0142 55.1459 39.946 55.3037C39.8778 55.4615 39.8682 55.6385 39.9188 55.8028C39.9694 55.9671 40.077 56.1079 40.2222 56.2C40.3674 56.292 40.5407 56.3292 40.7109 56.3049C41.9719 56.0729 43.5209 55.6049 44.8109 55.2569C46.1569 58.1909 48.8989 60.9799 52.3669 59.2149C55.8189 57.4589 55.4569 54.0369 54.3589 50.9329C54.6469 50.5235 55.0549 50.2128 55.5259 50.0427C55.9969 49.8725 56.5089 49.8513 56.9919 49.9819C58.0319 52.6249 60.5319 56.1759 63.8079 54.5909C67.0839 53.0059 66.4819 48.6909 65.5589 45.9089C64.6359 43.1269 62.3099 40.0189 59.0929 41.2119ZM51.7499 57.7379C48.9139 59.2379 46.7919 56.2589 45.9849 53.9519C45.3159 52.0359 44.9929 48.6249 46.9259 47.3569C49.4559 45.6969 51.8919 48.9339 52.6819 50.9999C53.5629 53.3059 54.3789 56.3499 51.7499 57.7379ZM63.1699 53.1459C60.4489 54.2889 58.9529 51.0629 58.1519 49.0459C57.3199 46.9529 57.0799 43.5289 59.6249 42.6739C62.1469 41.8259 63.6729 44.9619 64.2659 46.8739C64.8819 48.8659 65.2929 52.2539 63.1699 53.1459ZM49.9379 54.0529C50.3079 54.8669 50.2609 55.4639 49.7899 55.8529C49.1589 56.3819 48.5279 55.9529 48.1299 55.2709C47.8529 54.7959 47.5549 53.6939 48.2899 53.2369C48.9159 52.8519 49.6899 53.5079 49.9379 54.0529ZM62.0379 49.8729C62.1269 50.156 62.1369 50.458 62.0659 50.7463C61.9959 51.0345 61.8479 51.2979 61.6379 51.5079C60.9969 51.9299 60.2959 51.2019 60.1049 50.5869C59.8709 49.8369 59.9129 49.0209 60.4049 48.6949C61.1819 48.1869 61.8689 49.2409 62.0379 49.8729ZM58.8459 57.4999C59.2559 57.1149 59.3979 56.8329 59.0349 56.3639C58.3439 55.6015 57.5559 54.9329 56.6909 54.3749C56.0219 53.9049 56.7479 52.7999 57.4509 53.1749C58.2419 53.6102 58.9709 54.1482 59.6209 54.7749C61.3589 56.4229 61.1309 57.9279 59.2069 59.2839C58.4399 59.8834 57.5099 60.2393 56.5389 60.3059C56.3929 60.2744 56.2579 60.2014 56.1519 60.0957C56.0459 59.99 55.9719 59.856 55.9399 59.7097C55.9079 59.5633 55.9179 59.4108 55.9699 59.2703C56.0219 59.1297 56.1129 59.0071 56.2329 58.9169C56.8479 58.4239 57.9729 58.3199 58.8459 57.4999ZM53.3139 63.7509C54.6569 63.8825 56.0079 63.6005 57.1859 62.9429C58.1109 62.4299 58.5789 63.5979 57.9149 64.1129C56.5069 64.971 54.8719 65.3824 53.2249 65.2929C51.5981 65.2805 50.0172 64.7522 48.7099 63.7839C48.0909 63.2669 48.6829 62.1089 49.4489 62.5149C50.6075 63.2564 51.94 63.6818 53.3139 63.7489V63.7509ZM49.9759 70.0159C54.1949 70.4549 59.0129 70.9399 62.5759 68.1449C66.9319 64.7339 65.2629 60.2979 63.7029 56.7299C63.2789 55.7599 64.6209 55.3749 64.9969 56.1379C67.2039 60.6089 68.1209 65.5169 63.8429 69.0849C59.8869 72.3849 54.5809 72.0979 49.7829 71.4129C48.9929 71.2999 49.1869 69.9319 49.9759 70.0139V70.0159ZM89.8989 50.8639C93.8149 48.0559 97.9189 45.4469 100.236 41.0559C102.768 36.2559 102.959 30.6729 103.11 25.3639C101.318 25.5421 99.5289 25.0096 98.1259 23.881C96.7229 22.7524 95.8199 21.1181 95.6099 19.3299C95.5869 19.1497 95.6319 18.9675 95.7359 18.8187C95.8409 18.67 95.9969 18.5655 96.1739 18.5256C96.3509 18.4858 96.5369 18.5134 96.6949 18.6031C96.8529 18.6929 96.9719 18.8383 97.0279 19.0109C97.2039 20.3492 97.8759 21.5726 98.9119 22.4384C99.9469 23.3042 101.271 23.7491 102.619 23.6849C104.249 23.5909 104.84 23.7439 104.802 25.0849C104.641 30.7569 104.408 36.6249 101.754 41.7749C99.3969 46.3509 95.0429 49.4879 90.7419 52.0979C90.0189 52.5389 89.2119 51.3539 89.8989 50.8619V50.8639ZM104.449 2.64489C103.87 2.04489 104.749 1.04489 105.416 1.54489C107.235 2.99174 108.65 4.88242 109.526 7.03489C110.302 8.85189 111.033 11.9239 110.607 13.8669C110.543 14.0433 110.423 14.1939 110.265 14.2962C110.108 14.3985 109.921 14.4469 109.734 14.434C109.547 14.4211 109.369 14.3478 109.227 14.2249C109.085 14.1021 108.987 13.9364 108.947 13.7529C108.684 11.3129 108.914 10.1649 107.924 7.70589C107.11 5.80605 105.929 4.08552 104.449 2.64289V2.64489ZM112.628 13.8699C113.502 11.8287 114.023 9.65371 114.169 7.43789C114.238 5.21537 113.919 2.99788 113.226 0.884896C112.993 0.0608965 114.193 -0.352104 114.615 0.378896C115.626 2.12689 115.966 5.47889 115.895 7.50189C115.879 9.95814 115.281 12.3757 114.15 14.5559C114.04 14.7244 113.873 14.8479 113.68 14.9043C113.486 14.9607 113.279 14.9462 113.096 14.8635C112.912 14.7808 112.764 14.6352 112.678 14.4531C112.593 14.2709 112.575 14.0641 112.628 13.8699ZM115.092 16.8979C116.488 15.7903 117.684 14.4504 118.625 12.9369C119.548 11.3725 120.246 9.68593 120.699 7.92689C120.737 7.7385 120.847 7.57237 121.005 7.4641C121.164 7.35583 121.359 7.31401 121.548 7.34761C121.737 7.38121 121.906 7.48755 122.018 7.64386C122.129 7.80017 122.175 7.99402 122.146 8.18389C121.851 10.1733 121.148 12.0801 120.079 13.7839C119.058 15.4801 117.754 16.9886 116.223 18.2439C116.529 22.8769 116.698 27.5239 116.906 32.1619C117.612 47.8819 116.67 53.7149 103.122 64.2189C102.222 64.9189 101.222 63.4619 102.115 62.7679C115.662 52.2409 115.749 46.7119 115.124 31.2839C114.947 26.8929 114.718 22.5009 114.632 18.1079C114.625 17.8858 114.663 17.6647 114.743 17.4573C114.822 17.2499 114.942 17.0604 115.096 16.8999L115.092 16.8979ZM34.5279 68.5899C26.8539 77.9239 22.4339 87.1069 23.0019 99.4489C23.0262 99.6478 22.9704 99.8482 22.8469 100.006C22.7234 100.164 22.5423 100.266 22.3434 100.29C22.1445 100.315 21.9441 100.259 21.7863 100.136C21.6284 100.012 21.5262 99.8308 21.5019 99.6319C19.9019 87.9979 25.6859 76.0859 33.1639 67.5319C33.8989 66.6999 35.2399 67.7279 34.5279 68.5899ZM35.2859 115.022C31.0529 117.363 22.6319 119.851 17.7989 120.564C-8.04808 124.381 -0.391087 96.2119 7.65691 83.2639C11.9142 76.42 16.7653 69.9638 22.1539 63.9699C19.8375 57.7272 19.6459 50.8946 21.6089 44.5319C21.9409 43.4959 23.5849 43.1779 23.1779 45.0679C21.5529 52.6109 21.8069 55.9679 23.5899 62.9879C23.7702 63.4088 23.8235 63.8732 23.7432 64.324C23.6629 64.7748 23.4525 65.1922 23.1379 65.5249C16.489 72.31 10.9541 80.1031 6.73791 88.6159C0.537911 101.607 -3.29809 122.216 18.3009 118.671C24.3569 117.678 28.9309 115.471 34.5859 113.749C35.3279 113.524 36.0579 114.6 35.2889 115.022H35.2859ZM171.746 138.977C173.262 142.313 178.561 152.694 178.574 155.711C178.591 159.765 174.697 162.1 171.461 158.956C167.531 155.14 165.829 150.9 160.794 146.79C157.675 144.244 153.559 142.363 151.352 138.979C150.511 137.771 149.986 136.371 149.826 134.908C149.666 133.444 149.876 131.964 150.436 130.603C150.806 129.69 152.336 130.144 152.097 131.103C151.762 132.286 151.689 133.527 151.883 134.741C152.078 135.954 152.535 137.111 153.222 138.13C154.978 140.553 159.422 142.851 162.011 144.974C167.225 149.242 168.621 152.474 172.597 156.951C174.557 159.158 176.464 158.243 176.472 155.685C176.478 153.392 171.261 143.524 169.665 140.126C168.305 137.226 166.273 133.657 165.565 130.677C165.325 129.677 166.774 128.444 167.347 129.99C168.59 133.353 170.403 136.017 171.749 138.977H171.746ZM213.736 55.4189C213.275 60.5719 207.931 81.0189 206.705 84.8969C204.433 92.0879 197.534 91.3639 191.97 88.7299C190.988 88.2649 191.629 86.7159 192.645 86.9759C196.824 88.0429 202.715 89.8049 204.402 84.2119C206.108 78.5539 211.477 60.4119 211.61 55.3749C211.651 53.8369 210.679 53.2749 209.496 54.1959C205.496 57.2959 200.005 67.0249 197.289 71.5369C196.86 72.2509 195.547 71.8369 195.857 70.9869C197.404 66.7529 204.765 54.5809 208.706 52.2129C209.232 51.862 209.849 51.6716 210.481 51.665C211.114 51.6583 211.734 51.8357 212.267 52.1754C212.801 52.5152 213.224 53.0026 213.485 53.5785C213.746 54.1544 213.835 54.7938 213.739 55.4189H213.736ZM147.885 128.2C148.503 122.922 148.818 117.614 148.826 112.3C153.231 102.193 156.756 90.4539 159.736 79.8699C164.301 81.281 168.728 83.108 172.959 85.3279C172.925 93.8649 171.053 123.634 169.483 126.251C164.174 129.07 151.358 128.527 147.885 128.2ZM193.034 68.9409C192.926 75.5619 188.151 87.3079 186.634 90.6059C182.257 87.3189 167.858 80.2279 159.334 77.4739C159.059 77.3856 158.761 77.4097 158.504 77.5409C158.247 77.6721 158.053 77.8997 157.963 78.1739C155.685 86.4739 153.304 94.7739 150.316 102.851C145.139 116.841 137.252 129.626 114.352 124.951C101.452 99.8799 146.962 51.5149 153.752 50.0989C162.211 48.3329 187.828 64.5999 193.034 68.9429V68.9409ZM48.8469 79.1409C47.9879 76.1789 42.2469 68.1189 40.2719 66.0049C40.7188 65.6916 41.0799 65.271 41.3219 64.7817C41.5639 64.2925 41.6791 63.7503 41.6569 63.2049C41.5799 62.3909 40.3139 62.1439 40.1509 63.0449C40.1167 63.4929 39.9641 63.9237 39.7086 64.2933C39.4531 64.6628 39.104 64.9578 38.6969 65.148C38.2899 65.3382 37.8396 65.4167 37.3922 65.3756C36.9448 65.3345 36.5164 65.1751 36.1509 64.9139C34.1349 63.6399 32.7119 60.0589 33.7509 57.7629C33.8855 57.501 34.0751 57.2713 34.3066 57.0893C34.5381 56.9073 34.8061 56.7774 35.0923 56.7084C35.3786 56.6394 35.6764 56.6329 35.9653 56.6895C36.2543 56.746 36.5277 56.8641 36.7669 57.0359C36.921 57.1327 37.103 57.1754 37.284 57.1573C37.4651 57.1392 37.635 57.0613 37.7669 56.9359C39.1773 55.1141 40.1933 53.0188 40.7504 50.7832C41.3075 48.5476 41.3935 46.2205 41.0029 43.9499C46.3482 43.5866 51.5662 42.1544 56.3479 39.7379C62.0949 36.8309 66.3779 33.5829 64.6989 25.3809C63.6989 20.4809 59.6839 15.2379 53.3279 16.7279C45.3109 18.6069 30.9429 31.7979 30.2639 39.7529C27.5469 40.3619 25.2889 41.6689 24.7929 44.5969C23.9029 49.8549 27.9689 56.0089 31.8809 59.1129C31.7609 62.9509 34.3049 67.8309 38.9059 66.7429C42.1145 70.9131 45.0142 75.3122 47.5819 79.9049C48.0279 80.7119 49.0629 79.8879 48.8469 79.1409ZM42.8189 27.1289C45.2457 24.2973 48.3077 22.0796 51.7549 20.6569C54.6849 19.4179 59.5959 19.2639 59.9759 23.3409C59.9719 23.5316 59.9059 23.7159 59.7889 23.8658C59.6709 24.0158 59.5069 24.1233 59.3229 24.1721C59.1379 24.2209 58.9429 24.2084 58.7669 24.1363C58.5899 24.0643 58.4419 23.9367 58.3439 23.7729C56.9749 20.7149 53.5439 21.7939 51.1789 22.9479C48.4922 24.325 46.0161 26.079 43.8259 28.1569C43.6881 28.2824 43.5069 28.3495 43.3206 28.3442C43.1343 28.3389 42.9573 28.2615 42.8268 28.1283C42.6964 27.9952 42.6227 27.8166 42.6212 27.6302C42.6197 27.4438 42.6906 27.2641 42.8189 27.1289ZM96.8089 14.1219C97.0899 13.2861 97.5699 12.5307 98.2059 11.9202C98.8429 11.3097 99.6179 10.8622 100.464 10.6159C101.311 10.3695 102.205 10.3316 103.07 10.5054C103.934 10.6792 104.744 11.0595 105.43 11.6139C106.357 12.3417 107.016 13.3567 107.303 14.4995C107.591 15.6423 107.49 16.8483 107.018 17.9279C106.942 18.1124 106.801 18.2632 106.623 18.3526C106.444 18.4419 106.239 18.4639 106.046 18.4144C105.852 18.365 105.683 18.2474 105.569 18.0833C105.455 17.9191 105.404 17.7195 105.426 17.5209C105.95 15.3409 105.398 13.2129 103.126 12.3859C102.169 12.0762 101.13 12.1415 100.219 12.5684C99.3079 12.9954 98.5929 13.7522 98.2189 14.6859C98.1439 14.8729 97.9979 15.0225 97.8129 15.1018C97.6279 15.1811 97.4189 15.1837 97.2319 15.1089C97.0449 15.0341 96.8949 14.8881 96.8159 14.703C96.7369 14.5179 96.7339 14.3089 96.8089 14.1219Z" fill="black"/>
</svg>
