<svg width="67" height="114" viewBox="0 0 67 114" fill="none" xmlns="http://www.w3.org/2000/svg">
<path fill-rule="evenodd" clip-rule="evenodd" d="M65.925 96.254C62.918 99.319 59.71 102.18 56.416 104.933C53.165 107.649 50.036 110.584 46.596 113.063C45.796 113.642 44.957 112.399 45.585 111.742C48.541 108.642 51.932 105.942 55.085 103.056C58.2175 100.18 61.4966 97.467 64.909 94.929C65.703 94.341 66.567 95.6 65.925 96.254ZM38.208 53.093C32.156 55.293 25.999 57.278 19.768 58.914C13.493 60.562 7.02198 61.353 0.908983 62.986C0.727252 63.048 0.573206 63.172 0.474163 63.336C0.37512 63.5 0.33748 63.694 0.367918 63.884C0.398356 64.073 0.494904 64.246 0.640442 64.371C0.78598 64.496 0.971104 64.565 1.16298 64.567C7.61598 64.745 14.337 63.091 20.545 61.482C26.8867 59.841 33.0628 57.616 38.994 54.835C39.976 54.37 39.229 52.722 38.208 53.093ZM43.708 12.282C39.4258 9.85799 35.0119 7.67399 30.487 5.74099C25.835 3.64099 21.349 2.029 16.687 0.108996C15.895 -0.217004 15.261 1.102 16.039 1.488C20.499 3.705 24.626 6.00299 29.213 8.10099C33.6936 10.26 38.2911 12.168 42.984 13.815C43.1802 13.873 43.3907 13.858 43.5773 13.775C43.7639 13.691 43.9145 13.543 44.0019 13.358C44.0892 13.173 44.1076 12.963 44.0537 12.766C43.9999 12.569 43.8772 12.397 43.708 12.282Z" fill="#F9D423"/>
</svg>
