<svg width="129" height="129" viewBox="0 0 129 129" fill="none" xmlns="http://www.w3.org/2000/svg">
<path fill-rule="evenodd" clip-rule="evenodd" d="M122.1 0.090995C123.129 0.0213324 124.158 0.228508 125.08 0.690995C125.693 1.186 125.725 1.847 125.865 3.125C126.895 12.725 128.848 82.992 128.529 83.796C128.103 84.511 127.71 84.487 126.884 84.614C108.984 87.419 86.2 93.814 68.684 99.761C22.521 115.513 9.45999 128.037 7.77399 128.739C7.60989 128.791 7.43664 128.807 7.26581 128.786C7.09498 128.766 6.9305 128.709 6.78333 128.62C6.63617 128.531 6.50971 128.411 6.41239 128.269C6.31508 128.127 6.24915 127.966 6.21899 127.797C4.60699 122.41 0.318994 45.5 0.00899367 38.819C-0.018511 38.5598 0.0158169 38.2978 0.109162 38.0544C0.202507 37.8111 0.35221 37.5933 0.545994 37.419C7.79999 29.548 103.728 0.115995 122.1 0.090995ZM8.06999 125.845C35.115 105.967 92.739 87.363 126.028 82.106C123.687 -6.757 123.475 7.022 123.293 2.674C121.632 2.54687 119.963 2.60758 118.316 2.855C101 4.94099 59.941 16.768 42.138 22.347C37.915 23.672 3.32199 34.524 1.09999 38.431C0.937994 38.719 6.34499 114.421 8.06999 125.845Z" fill="black"/>
<path fill-rule="evenodd" clip-rule="evenodd" d="M14.27 45.357C14.331 46.805 18.496 101.515 18.77 101.351C24.963 97.671 50.943 88.303 54.515 86.336C55.108 86.009 51.833 36.172 51.185 33.936C50.349 31.054 14.264 45.2 14.27 45.357Z" fill="#5753C9"/>
<path d="M39 78C37.8449 78.001 36.7076 77.7157 35.6897 77.1697C34.6719 76.6238 33.8051 75.8341 33.167 74.8713L34.833 73.7639C35.2892 74.4515 35.9084 75.0155 36.6355 75.4056C37.3625 75.7958 38.1749 76 39 76C39.8251 76 40.6374 75.7958 41.3645 75.4056C42.0916 75.0155 42.7108 74.4515 43.167 73.7639L44.833 74.8713C44.1949 75.8341 43.3281 76.6238 42.3102 77.1697C41.2924 77.7157 40.1551 78.001 39 78Z" fill="#F4F4F4"/>
<path d="M43 67C42.6044 67 42.2178 67.1173 41.8889 67.3371C41.56 67.5568 41.3036 67.8692 41.1522 68.2346C41.0009 68.6001 40.9613 69.0022 41.0384 69.3902C41.1156 69.7781 41.3061 70.1345 41.5858 70.4142C41.8655 70.6939 42.2219 70.8844 42.6098 70.9616C42.9978 71.0387 43.3999 70.9991 43.7654 70.8478C44.1308 70.6964 44.4432 70.44 44.6629 70.1111C44.8827 69.7822 45 69.3956 45 69C45.0026 68.7366 44.9526 68.4754 44.853 68.2316C44.7535 67.9878 44.6062 67.7662 44.42 67.58C44.2338 67.3938 44.0122 67.2466 43.7684 67.147C43.5246 67.0474 43.2634 66.9974 43 67Z" fill="#F4F4F4"/>
<path d="M35 67C34.6044 67 34.2178 67.1173 33.8889 67.3371C33.56 67.5568 33.3036 67.8692 33.1522 68.2346C33.0009 68.6001 32.9613 69.0022 33.0384 69.3902C33.1156 69.7781 33.3061 70.1345 33.5858 70.4142C33.8655 70.6939 34.2219 70.8844 34.6098 70.9616C34.9978 71.0387 35.3999 70.9991 35.7654 70.8478C36.1308 70.6964 36.4432 70.44 36.6629 70.1111C36.8827 69.7822 37 69.3956 37 69C37.0026 68.7366 36.9526 68.4754 36.853 68.2316C36.7535 67.9878 36.6062 67.7662 36.42 67.58C36.2338 67.3938 36.0122 67.2466 35.7684 67.147C35.5246 67.0474 35.2634 66.9974 35 67Z" fill="#F4F4F4"/>
<path d="M47 61H41V57C40.9994 56.4698 40.7885 55.9614 40.4135 55.5865C40.0386 55.2115 39.5302 55.0006 39 55H23C22.4698 55.0006 21.9614 55.2115 21.5865 55.5865C21.2115 55.9614 21.0006 56.4698 21 57V67C21.0038 69.4431 21.9009 71.8004 23.5223 73.6279C25.1437 75.4553 27.3775 76.6267 29.8027 76.9214C30.7063 79.0416 32.3145 80.7845 34.3553 81.8553C36.3961 82.9262 38.7442 83.2591 41.0022 82.7979C43.2603 82.3366 45.2897 81.1095 46.7471 79.3241C48.2044 77.5387 49.0003 75.3047 49 73V63C48.9994 62.4698 48.7885 61.9614 48.4135 61.5865C48.0386 61.2115 47.5302 61.0006 47 61ZM23 67V57H39V61H31C30.4698 61.0006 29.9614 61.2115 29.5865 61.5865C29.2115 61.9614 29.0006 62.4698 29 63V73C29.0025 73.5972 29.0588 74.1929 29.168 74.78C27.4146 74.366 25.8521 73.3729 24.7328 71.9612C23.6136 70.5495 23.0031 68.8016 23 67ZM47 73C47 75.1217 46.1571 77.1566 44.6569 78.6569C43.1566 80.1571 41.1217 81 39 81C36.8783 81 34.8434 80.1571 33.3431 78.6569C31.8429 77.1566 31 75.1217 31 73V63H47V73Z" fill="#F4F4F4"/>
<path fill-rule="evenodd" clip-rule="evenodd" d="M50.219 32.451C50.5797 32.4124 50.9442 32.4697 51.2757 32.617C51.6071 32.7643 51.8939 32.9964 52.107 33.29C53.207 35.254 55.576 76.257 55.791 81.517C56 86.757 56.091 87.006 54.815 87.655C52.492 88.81 45.615 91.455 39.541 93.834C19.201 101.802 20.231 102.097 19.221 102.493C19.0565 102.558 18.8801 102.587 18.7036 102.577C18.527 102.568 18.3546 102.521 18.1978 102.439C18.0411 102.357 17.9037 102.243 17.7951 102.104C17.6864 101.964 17.609 101.803 17.568 101.631C16.891 98.763 13.678 45.389 13.75 45.383C13.7453 45.2794 13.7712 45.1767 13.8245 45.0877C13.8779 44.9988 13.9563 44.9276 14.05 44.883C15.39 44.166 44.031 32.415 50.219 32.451ZM14.826 45.68C14.865 46.149 19.599 97.81 19.76 99.412C27.713 95.381 48.392 87.784 53.279 85.493C53.344 79.909 50.692 38.77 50.179 34.651C45.781 34.328 19.3 43.862 14.826 45.68ZM50.5 34.693L50.48 34.686L50.5 34.693ZM50.478 34.686L50.501 34.692L50.478 34.686ZM50.492 34.691L50.477 34.685L50.492 34.691ZM50.492 34.691L50.472 34.685L50.492 34.691Z" fill="#212121"/>
<path fill-rule="evenodd" clip-rule="evenodd" d="M63.412 30.482C63.358 29.943 63.9 29.559 64.372 29.282C70.128 25.882 105.928 16.647 110.814 16.755C111.182 16.7315 111.546 16.8429 111.838 17.0683C112.13 17.2938 112.33 17.6179 112.4 17.98C113.071 20.348 114.641 36.053 114.183 38.222C114.141 38.4532 114.044 38.6707 113.9 38.8559C113.755 39.0411 113.568 39.1884 113.354 39.285C112.968 39.3946 112.572 39.4679 112.172 39.504C105.586 40.72 69.972 50.126 65.372 49.325C65.1179 49.3057 64.8767 49.2054 64.6838 49.0389C64.4908 48.8724 64.3563 48.6485 64.3 48.4C63.952 46.609 63.748 38.913 63.5 32.483C63.433 30.662 63.406 30.505 63.412 30.482ZM110.056 19.366C105.056 19.915 67.189 28.074 64.473 30.504C64.704 32.46 65.561 44.704 66.003 47.511C70.837 47.365 104.013 38.384 111.658 36.942C111.717 33.652 110.265 19.345 110.056 19.366Z" fill="#212121"/>
<path fill-rule="evenodd" clip-rule="evenodd" d="M115.682 48.787L115.864 49.133V49.14L115.739 49.511C115.011 49.895 116.139 49.483 111.732 50.194C101.824 51.807 84.547 56.417 75.311 59.394C67.036 62.082 69.829 61.794 67.706 61.908L66.957 61.244V61.237L66.902 60.237C67.693 59.344 67.49 59.522 67.802 59.38C76.294 55.68 104.482 49.108 115.309 48.656L115.682 48.787Z" fill="#212121"/>
<path fill-rule="evenodd" clip-rule="evenodd" d="M116.526 62.048L116.708 62.393V62.4L116.583 62.771C115.855 63.155 116.983 62.743 112.576 63.454C102.668 65.068 85.391 69.678 76.155 72.654C67.603 75.433 70.777 75.047 68.55 75.168L67.801 74.504V74.498L67.747 73.498C68.538 72.606 68.335 72.784 68.647 72.641C77.139 68.941 105.327 62.369 116.154 61.917L116.526 62.048Z" fill="#212121"/>
</svg>
