<svg width="144" height="166" viewBox="0 0 144 166" fill="none" xmlns="http://www.w3.org/2000/svg">
<path fill-rule="evenodd" clip-rule="evenodd" d="M40.766 85.652C50.826 85.695 51.266 98.478 51.266 98.478C51.266 98.478 43.719 128.969 41.185 128.717C35.252 128.131 27.848 126.599 21.297 111.772C16.304 100.472 15.508 65.394 14.83 63.748C14.02 61.778 11.838 60.101 10.744 58.167C8.922 54.948 8.839 50.079 11.511 47.776C12.5523 47.1454 13.7112 46.7337 14.917 46.566C13.8869 44.3219 13.0256 42.0041 12.34 39.632C11.885 38.358 11.291 37.161 11.879 35.926C12.0116 35.6462 12.2083 35.4017 12.4531 35.2121C12.6979 35.0225 12.9839 34.8933 13.288 34.8349C13.592 34.7764 13.9055 34.7904 14.2032 34.8758C14.5008 34.9611 14.7741 35.1153 15.001 35.326C16.187 36.426 19.364 42.512 19.696 43.899C19.79 44.294 24.034 48.251 24.76 51.112C24.927 51.773 28.175 56.769 28.772 57.698C32.509 63.523 34.518 70.477 37.14 76.85C38.021 78.982 39.652 84.364 40.764 85.65C42.434 87.6315 43.9733 89.7195 45.372 91.901" fill="white"/>
<path fill-rule="evenodd" clip-rule="evenodd" d="M15.4 34.334C16.721 35.258 19.064 39.965 19.742 41.406C21.035 44.184 20.208 43.081 21.147 44.147C25.855 49.475 25.075 49.911 25.98 51.535C28.714 56.411 30.521 58.028 33.392 65.1C34.24 67.19 38.248 78.033 38.284 78.136C38.933 80.046 40.246 84.061 41.09 85.219C46.247 85.333 49.221 88.6 50.928 93.467C51.4458 95.0716 51.7743 96.7312 51.907 98.412C51.939 99.179 47.574 116.098 44.969 123.58C44.4421 125.162 43.7887 126.698 43.015 128.175C42.049 129.798 41.543 129.684 40.385 129.575C38.5892 129.413 36.8178 129.047 35.105 128.483C32.0324 127.393 29.2865 125.541 27.124 123.101C23.4878 118.889 20.7578 113.974 19.104 108.661C15.994 97.8 14.951 78.9 14.177 67.9C13.891 63.942 13.896 64.121 13.398 63.338C12.606 62.104 11.182 60.766 10.19 59.306C7.87701 55.854 7.535 50.254 10.49 47.278C11.3003 46.5282 12.3053 46.0216 13.39 45.816C12.7747 44.3222 12.2354 42.7983 11.774 41.25C11.225 39.504 11.105 39.333 10.874 38.593C9.684 34.679 13.034 32.732 15.4 34.334ZM40.96 127.86L40.97 127.853L40.96 127.86ZM40.976 127.849L40.964 127.86L40.973 127.853L40.976 127.849ZM40.967 127.856H40.973H40.967ZM13.588 35.83C13.217 35.837 12.912 36.021 12.737 36.558C12.6461 37.4147 12.8185 38.2787 13.231 39.035C13.9421 41.433 14.8158 43.7798 15.846 46.059C15.9597 46.2672 16.0001 46.5076 15.9608 46.7416C15.9214 46.9755 15.8046 47.1895 15.629 47.349C15.211 47.669 15.229 47.549 14.212 47.791C13.5098 47.9255 12.8379 48.1864 12.229 48.561C10.329 50.085 9.77801 54.312 11.702 57.677C12.16 58.4074 12.6835 59.0945 13.266 59.73C16.14 63.043 15.991 63.219 16.266 66.925C16.922 75.795 17.58 88.579 19.319 99.565C20.51 107.015 21.569 111.073 25.289 117.265C27.589 120.929 29.944 123.765 33.744 125.801C36.035 126.914 38.516 127.584 41.056 127.774C41.9893 126.271 42.7415 124.663 43.297 122.983V122.983C45.965 115.516 48.256 107.258 50.297 99.63C50.678 98.17 50.642 98.61 50.559 97.63C49.976 92.868 48.186 88.122 43.629 86.551C43.0476 86.3619 42.4491 86.2303 41.842 86.158C43.2303 87.9256 44.5254 89.7644 45.722 91.667L45.599 92.267L44.999 92.137C38.407 82.41 41.282 89.392 36.817 77.748C36.475 76.881 35.978 75.759 35.44 74.368C34.112 71.03 33.071 68.144 31.662 64.939C28.737 58.613 28.509 59.055 25.1 53.576C24.6052 52.8578 24.1885 52.0888 23.857 51.282C23.197 49 20.077 45.935 19.103 44.762C18.566 44.101 19.054 44.381 17.403 41.147C16.6564 39.6719 15.8267 38.2402 14.918 36.859C14.55 36.308 14.257 35.818 13.588 35.83ZM25.631 50.862V50.855V50.862ZM25.631 50.862V50.848V50.862ZM20.557 43.457L20.548 43.443L20.557 43.457Z" fill="#212121"/>
<path fill-rule="evenodd" clip-rule="evenodd" d="M10.177 49.26C9.72131 49.0609 9.21637 49.0032 8.72751 49.0943C8.23865 49.1854 7.78839 49.4212 7.435 49.771C6.466 50.682 6.7 52.249 7.109 53.409C7.97584 55.3991 9.24472 57.1886 10.836 58.665C11.623 59.255 13.617 58.918 13.879 57.744C14.179 56.409 13.62 55.325 13.036 54.105C12.32 52.607 11.444 50.347 10.177 49.26Z" fill="white"/>
<path fill-rule="evenodd" clip-rule="evenodd" d="M9.032 48.513C9.55579 48.5021 10.0693 48.6595 10.497 48.962V48.962C11.2655 49.5932 11.9209 50.3507 12.435 51.202C12.972 52.057 14.16 54.192 14.414 54.721C14.8361 55.5252 15.0383 56.4266 15 57.334C15.0036 57.8337 14.859 58.3232 14.5846 58.7407C14.3101 59.1583 13.9181 59.4851 13.458 59.68C13.0047 59.8975 12.5102 60.0157 12.0075 60.0269C11.5049 60.0381 11.0056 59.942 10.543 59.745C9.37988 58.8914 8.39987 57.8132 7.66101 56.574C6.59801 54.943 5.66801 53.189 5.91101 51.257C5.98346 50.488 6.34686 49.7757 6.92696 49.2656C7.50706 48.7556 8.26004 48.4864 9.032 48.513V48.513ZM8.377 49.887C8.18032 50.0007 8.01147 50.1568 7.88276 50.3439C7.75406 50.5311 7.66873 50.7447 7.63301 50.969C7.5922 51.696 7.7295 52.4221 8.033 53.084C8.88541 54.8342 10.0401 56.4203 11.444 57.769C11.6732 57.8608 11.9231 57.8885 12.1669 57.8492C12.4107 57.8099 12.6392 57.7051 12.828 57.546C12.9995 56.8587 12.9186 56.1327 12.6 55.5C12.562 55.4 11.239 51.956 11.2 51.856C10.8996 51.0365 10.4628 50.2738 9.908 49.6V49.6L9.89701 49.593L9.919 49.609L9.907 49.602L9.92501 49.614L9.91101 49.607L9.92601 49.617L9.91001 49.61C9.64922 49.5477 9.37833 49.5401 9.11446 49.5878C8.8506 49.6355 8.59949 49.7373 8.377 49.887V49.887Z" fill="#212121"/>
<path fill-rule="evenodd" clip-rule="evenodd" d="M14.432 46.728C13.9761 46.5295 13.4712 46.4721 12.9824 46.5634C12.4937 46.6547 12.0435 46.8903 11.69 47.24C10.721 48.151 10.955 49.718 11.363 50.878C12.2305 52.8677 13.4993 54.657 15.09 56.134C15.877 56.723 17.872 56.387 18.134 55.212C18.434 53.878 17.875 52.794 17.291 51.574C16.575 50.076 15.7 47.816 14.432 46.728Z" fill="white"/>
<path fill-rule="evenodd" clip-rule="evenodd" d="M13.287 45.982C13.8108 45.9711 14.3243 46.1285 14.752 46.431V46.431C15.5202 47.0621 16.1756 47.8192 16.69 48.67C17.227 49.526 18.414 51.661 18.669 52.19C19.0921 52.9939 19.2953 53.8953 19.258 54.803C19.2615 55.3026 19.1169 55.7921 18.8424 56.2096C18.568 56.6271 18.176 56.954 17.716 57.149C17.2625 57.3665 16.7678 57.4848 16.265 57.496C15.7622 57.5072 15.2628 57.411 14.8 57.214C13.6374 56.3601 12.6578 55.2819 11.919 54.043C10.856 52.412 9.926 50.658 10.169 48.726C10.2414 47.9575 10.6044 47.2456 11.1839 46.7357C11.7633 46.2258 12.5156 45.9562 13.287 45.982V45.982ZM12.632 47.356C12.4353 47.4697 12.2665 47.6258 12.1378 47.8129C12.0091 48.0001 11.9237 48.2137 11.888 48.438C11.8472 49.165 11.9845 49.8911 12.288 50.553C13.1403 52.303 14.2947 53.889 15.698 55.238C15.9274 55.3296 16.1774 55.3573 16.4213 55.318C16.6653 55.2788 16.8939 55.174 17.083 55.015C17.2543 54.3275 17.1726 53.6013 16.853 52.969C16.816 52.869 15.492 49.425 15.453 49.324C15.1557 48.5044 14.7219 47.7409 14.17 47.066L14.159 47.059L14.181 47.075L14.168 47.068L14.186 47.08L14.172 47.073L14.188 47.083L14.172 47.075C13.9098 47.0128 13.6376 47.0057 13.3726 47.0541C13.1075 47.1025 12.8553 47.2053 12.632 47.356V47.356Z" fill="#212121"/>
<path fill-rule="evenodd" clip-rule="evenodd" d="M24.346 51.4C24.5097 50.9309 24.5287 50.4234 24.4005 49.9434C24.2723 49.4634 24.0028 49.033 23.627 48.708C22.644 47.808 21.098 48.164 19.971 48.659C18.0511 49.6741 16.3613 51.0743 15.007 52.772C14.479 53.6 14.966 55.561 16.158 55.733C17.513 55.933 18.553 55.291 19.726 54.617C21.167 53.788 23.356 52.743 24.346 51.4Z" fill="white"/>
<path fill-rule="evenodd" clip-rule="evenodd" d="M21.878 47.3C22.3719 47.2837 22.8622 47.3896 23.3053 47.6083C23.7484 47.8271 24.1307 48.1519 24.418 48.554C24.7534 49.0005 24.9548 49.5333 24.9987 50.09C25.0426 50.6467 24.9272 51.2044 24.666 51.698V51.698C24.0141 52.6157 23.1989 53.4055 22.261 54.028C21.0576 54.8956 19.8015 55.6878 18.5 56.4C17.8571 56.6892 17.1578 56.8313 16.453 56.816C15.9577 56.8223 15.4715 56.6825 15.0552 56.4141C14.6389 56.1458 14.3108 55.7607 14.112 55.307C13.8782 54.8605 13.7453 54.368 13.7229 53.8645C13.7004 53.3609 13.7889 52.8586 13.982 52.393C14.597 51.168 16.733 49.474 17.955 48.659C19.0917 47.8132 20.4617 47.3387 21.878 47.3V47.3ZM22.278 48.992C21.1027 49.1348 19.994 49.6152 19.086 50.375C17.8936 51.2121 16.8257 52.2137 15.914 53.35C15.794 53.556 15.934 54.515 16.299 54.683C17.0267 54.7561 17.7589 54.5994 18.393 54.235C21.306 52.835 22.966 52.219 23.981 51.157L23.987 51.146C24.021 50.8941 24.0016 50.6379 23.93 50.394C23.8546 50.0081 23.6506 49.6591 23.3513 49.4041C23.052 49.149 22.675 49.0031 22.282 48.99L22.278 48.992Z" fill="#212121"/>
<path fill-rule="evenodd" clip-rule="evenodd" d="M50.1 100.8C50.1 100.8 51.34 91.219 41.1 85.532C38.682 84.189 64.329 70.475 93.289 69.461C132.444 68.089 142.911 105.089 142.689 114.529C142.589 122.229 140.697 129.799 137.163 136.641C133.629 143.482 128.55 149.406 122.328 153.943L117.507 150.786L47.161 160.826C47.161 160.826 41.298 143.184 36.39 140.133C35.064 139.308 41.702 129.256 41.702 129.256C45.992 105.434 50.1 100.8 50.1 100.8Z" fill="#5753C9"/>
<path fill-rule="evenodd" clip-rule="evenodd" d="M49.171 101.392C49.781 100.416 49.665 100.784 49.693 100.352C49.7351 98.2242 49.3296 96.1114 48.5027 94.1504C47.6758 92.1894 46.446 90.4241 44.893 88.969C42.247 86.469 40.721 86.246 40.436 85.629C38.964 82.384 64.036 71.205 87.485 68.929C95.551 68.164 102.574 68.229 110.432 70.593C128.064 75.958 139.591 91.98 143.061 108.505C143.656 111.059 143.867 113.688 143.686 116.305C143.273 124.869 140.701 133.189 136.208 140.491C132.054 147.191 126.508 152.542 122.974 154.807C122.797 154.939 122.583 155.014 122.361 155.021C122.14 155.028 121.922 154.966 121.737 154.845L117.254 151.907C117.361 151.907 47.47 161.866 46.827 161.662C46.299 161.401 46.414 161.337 45.66 159.216C44.235 155.09 39.706 143.253 36.089 140.83C35.8584 140.708 35.6771 140.51 35.576 140.27C35.23 139.361 35.96 137.77 36.435 136.827C37.8267 134.134 39.3757 131.526 41.074 129.015C41.19 129.008 44.4 109.436 49.171 101.392ZM83.716 71.13C73.1972 72.4459 62.8907 75.1059 53.049 79.045C50.522 80.081 43.461 83.119 41.62 85.168C46.714 88.181 49.462 92.291 50.326 96.935C50.5791 98.2224 50.6465 99.5395 50.526 100.846C49.6134 102.255 48.8671 103.765 48.302 105.346C44.502 115.001 42.553 129.096 42.247 129.61C40.936 131.578 37.556 137.07 36.96 139.534C36.939 139.748 36.941 139.406 38.215 140.699C41.926 144.675 45.985 154.725 47.754 159.829C48.608 159.707 115.954 149.752 117.81 149.752C117.909 149.781 118.002 149.824 118.088 149.881C122.629 152.85 122.252 152.681 122.352 152.608C124.477 151.037 126.452 149.272 128.252 147.336C134.963 140.245 139.387 131.302 140.952 121.665C141.952 114.889 141.98 111.347 139.695 104.071C138.84 101.378 137.783 98.7533 136.531 96.22C125.218 74.118 107.575 68.246 83.716 71.13Z" fill="#212121"/>
<path fill-rule="evenodd" clip-rule="evenodd" d="M117.748 150.577C117.748 150.577 81.811 128.068 81.534 128.123C39.48 136.545 25.49 145.69 23.414 146.003C20.008 146.519 16.314 146.519 12.729 147.063C10.998 147.326 1.75499 147.721 1.82899 149.809C2.04199 155.633 12.506 150.562 13.586 155.444C13.9027 156.44 14.5116 157.317 15.3336 157.962C16.1555 158.608 17.1525 158.991 18.195 159.062C22.941 159.281 25.453 157.056 26.715 156.409C27.204 156.162 35.955 158.757 45.457 160.691C103.8 172.567 117.4 150.463 117.748 150.577Z" fill="white"/>
<path fill-rule="evenodd" clip-rule="evenodd" d="M117.973 150.941C117.896 151.053 116.951 152.132 116.415 152.664C114.215 154.817 111.721 156.649 109.008 158.104C77.126 174.604 28.36 156.604 26.815 157.586C24.4917 159.247 21.7097 160.144 18.854 160.154C17.8353 160.2 16.8209 159.994 15.901 159.554C15.1492 159.224 14.4724 158.745 13.9118 158.145C13.3511 157.546 12.9184 156.838 12.64 156.066C12.5851 155.678 12.4376 155.31 12.21 154.991C10.394 153.026 3.893 155.412 1.481 152.16C1.01425 151.479 0.761756 150.674 0.75599 149.849C0.72299 148.16 2.712 147.502 4.329 147.097C6.96587 146.572 9.6342 146.219 12.317 146.041C16.456 145.459 17.931 145.541 21.525 145.175C23.3 144.991 23.025 144.967 23.266 144.957C28.575 142.875 40.266 135.911 76.555 128.257C82.122 127.135 81.532 127.223 81.964 127.398C91.171 132.998 111.164 145.863 117.982 150.208C117.816 150.473 117.557 150.888 117.982 150.214L118.043 150.258C118.09 150.304 118.127 150.36 118.149 150.422C118.172 150.484 118.18 150.551 118.173 150.616C118.166 150.682 118.145 150.745 118.11 150.802C118.076 150.858 118.029 150.905 117.973 150.941ZM26.973 155.331C30.725 155.595 82.433 172.647 110.173 156.204C112.746 154.73 115.071 152.861 117.062 150.664C116.527 150.338 84.847 130.945 81.421 129C68.483 131.747 53.956 135.3 41.445 139.765C35.877 141.721 30.4178 143.974 25.091 146.514C23.817 147.086 23.715 147.09 20.743 147.388C16.384 147.741 15.991 147.729 13.71 148.007C10.874 148.407 6.08 148.607 3.578 149.569C3.34566 149.654 3.12546 149.77 2.92299 149.912C2.92367 150.165 2.98246 150.414 3.09482 150.64C3.20718 150.867 3.3701 151.065 3.57099 151.218C5.16399 152.399 9.81099 151.374 12.595 152.636C14.516 153.617 14.51 154.975 14.815 155.715C15.1322 156.309 15.583 156.821 16.1319 157.211C16.6808 157.601 17.3128 157.858 17.978 157.962C20.4045 158.176 22.8333 157.578 24.883 156.262C26.111 155.53 26.322 155.287 26.97 155.331H26.973ZM117.759 151.006H117.765H117.775H117.759Z" fill="#212121"/>
<path fill-rule="evenodd" clip-rule="evenodd" d="M102.785 97.584L102.725 98.191C98.325 102.651 92.681 110.454 89.46 115.197C88.669 116.36 82.274 125.905 82.182 127.492V127.482L82.177 127.511V127.521V127.535V127.548V127.558V127.594L81.823 128.094C81.183 127.646 81.353 127.786 81.298 127.64C81.125 123.483 92.022 104.708 102.179 97.528L102.785 97.584Z" fill="#212121"/>
<path fill-rule="evenodd" clip-rule="evenodd" d="M110.266 27.651C102.137 19.639 83.602 12.263 72.888 24.828C72.888 24.828 67.424 34.208 71.403 55.055C71.8483 57.4024 72.7241 59.6472 73.986 61.676C76.304 64.853 81.918 65.69 85.664 65.534C87.108 65.474 88.525 65.173 89.919 65.115C90.139 65.106 91.013 64.807 91.201 64.981C92.162 65.862 92.824 71.724 93.101 71.981C94.1705 72.9679 95.4742 73.6657 96.8886 74.0083C98.303 74.351 99.7814 74.3271 101.184 73.939C103.139 73.528 106.775 72.316 107.52 70.652C107.854 69.91 106.654 62.652 106.955 62.309C112.16 56.391 110.662 50.979 111.52 50.048C111.627 49.93 113.82 49.623 114.39 49.365C116.6 48.373 118.126 44.633 117.562 42.312C117.42 41.6229 117.094 40.9852 116.619 40.4666C116.143 39.948 115.536 39.568 114.862 39.367C113.921 39.097 110.983 40.977 110.983 40.977L110.266 27.651Z" fill="white"/>
<path fill-rule="evenodd" clip-rule="evenodd" d="M114.764 38.661C115.854 38.8532 116.825 39.4681 117.464 40.372C119.037 42.516 118.509 45.421 117.246 47.664C115.563 50.385 114.246 50.297 112.164 50.772C112.049 52.5608 111.807 54.339 111.437 56.093C110.775 58.5422 109.572 60.8115 107.915 62.733C107.874 63.266 108.54 68.024 108.609 69.654C108.689 70.1328 108.639 70.6242 108.465 71.0773C108.291 71.5303 107.999 71.9287 107.619 72.231C106.811 72.915 105.9 73.4668 104.919 73.866C100.379 75.731 96.364 76.007 92.667 73.029C92.05 72.493 92.016 72.453 91.676 70.62C90.653 65.205 90.625 66.47 90.609 66.075C89.9445 66.1976 89.2728 66.2771 88.598 66.313C87.0944 66.5552 85.5715 66.6576 84.049 66.619C81.4493 66.5814 78.8834 66.0245 76.502 64.981C75.451 64.5193 74.5027 63.8524 73.7128 63.0194C72.9229 62.1864 72.3072 61.2041 71.902 60.13C70.464 56.884 70.102 54.1 69.588 50.521C68.8104 45.1295 68.72 39.6612 69.319 34.247C69.6664 31.0113 70.5015 27.8468 71.796 24.861C71.968 24.4436 72.2283 24.0683 72.559 23.761C73.5872 22.633 74.7387 21.624 75.992 20.753C86.169 13.596 102.286 18.753 110.567 27.341C110.726 27.525 110.697 27.635 110.718 27.969C111.588 40.9 111.399 39.978 111.724 39.794C112.636 39.1868 113.677 38.799 114.764 38.661V38.661ZM81.811 19.818C78.8938 20.7792 76.2766 22.4822 74.216 24.76C73.616 25.431 73.687 25.334 73.549 25.634C71.912 28.988 71.086 34.922 71.005 39.002C70.799 44.18 71.716 56.179 74.591 60.657C75.0527 61.401 75.6817 62.027 76.428 62.485C78.745 63.985 82.336 64.515 85.111 64.471C86.3306 64.4194 87.5466 64.3035 88.754 64.124C89.1823 64.1025 89.6092 64.0591 90.033 63.994C91.11 63.746 91.663 63.726 92.291 64.627C93.176 66.166 93.534 69.135 94.014 71.36C95.0974 72.3316 96.4583 72.9388 97.905 73.096C101.135 73.471 105.673 71.537 106.462 70.42C106.562 70.281 106.541 70.313 106.549 70.139C106.438 67.47 106.007 65.099 105.911 62.805C105.933 61.718 106.054 61.921 106.811 60.937C107.765 59.7613 108.543 58.4529 109.12 57.053C109.855 55.02 110.276 52.8868 110.368 50.727C110.615 49.293 111.093 49.211 111.843 49.059C113.992 48.649 114.05 48.731 114.861 48.066C115.531 47.4075 116.059 46.6188 116.413 45.7483C116.767 44.8779 116.938 43.9443 116.917 43.005C116.863 42.1475 116.495 41.3397 115.885 40.735C115.779 40.6341 115.665 40.5415 115.545 40.458C115.275 40.2711 114.979 40.1261 114.666 40.028V40.028C113.605 40.2773 112.594 40.7054 111.676 41.294C111.2 41.575 111.239 41.574 111.009 41.601C110.865 41.6058 110.724 41.5601 110.611 41.4719C110.497 41.3837 110.418 41.2585 110.387 41.118C110.37 40.955 110.434 42.444 109.85 28.018C109.842 27.818 109.868 27.874 109.768 27.779C102.723 21.306 90.993 16.808 81.811 19.818ZM111.866 50.848L111.888 50.84L111.866 50.848ZM111.875 50.848H111.885H111.875ZM114.69 40.035H114.677H114.69ZM114.69 40.035H114.671H114.69ZM114.667 40.035H114.684H114.667Z" fill="#212121"/>
<path fill-rule="evenodd" clip-rule="evenodd" d="M71.764 29.314C72.032 28.721 70.389 29.443 69.814 29.132C68.651 28.499 67.428 27.622 66.731 24.54C66.143 21.949 68.573 19.382 68.484 19.303C65.244 16.326 65.063 11.983 68.373 8.388C70.209 6.396 72.573 7.178 74.648 7.088C74.963 7.075 75.524 5.002 75.81 4.626C77.0326 2.98496 78.8418 1.87968 80.86 1.541C81.6758 1.42934 82.5062 1.49868 83.2923 1.74409C84.0783 1.98951 84.8006 2.40498 85.408 2.961C86.084 3.477 87.537 4.366 87.537 4.366C88.3294 3.46437 89.2218 2.65584 90.197 1.956C92.1075 1.00976 94.2274 0.56547 96.357 0.665001C99.857 0.691001 102.581 4.773 103.316 4.742C103.516 4.734 109.047 1.426 113.991 4.066C116.737 5.535 119.28 7.347 120.206 10.566C120.773 12.906 120.849 15.3382 120.429 17.709C120.429 17.709 128.154 18.08 128.068 27.045C128.027 31.345 123.968 33.617 123.968 33.653C124.027 35.075 126.175 36.218 124.978 38.553C123.431 41.574 120.878 40.444 120.378 41.274C120.169 41.616 121.849 44.794 117.74 45.874C117.506 45.935 119.04 39.942 114.712 38.58C111.152 37.462 106.876 35.219 105.82 31.652C105.402 30.231 105.864 27.052 104.22 26.317C103.59 26.034 102.665 27.646 102.096 27.785C96.99 29.028 95.196 28.262 90.732 25.73C89.82 25.212 89.112 23.747 88.111 23.541C86.291 23.166 84.118 26.991 82.171 27.352C80.521 27.658 76.956 25.774 76.365 26.1C75.43 26.618 75.359 28.3 74.408 28.826C73.56 29.295 71.134 28.485 71.174 28.501" fill="#212121"/>
<path fill-rule="evenodd" clip-rule="evenodd" d="M109.873 2.411C111.817 2.42721 113.715 3.00848 115.335 4.084C116.666 4.8266 117.869 5.77727 118.9 6.9C121.318 9.563 121.653 13.6 121.175 17.149C122.473 17.3475 123.71 17.835 124.795 18.5754C125.88 19.3158 126.784 20.2903 127.442 21.427C128.333 23.1266 128.772 25.0267 128.718 26.945C128.669 28.3535 128.275 29.7286 127.572 30.9502C126.87 32.1719 125.879 33.2031 124.686 33.954V33.954C125.079 35.181 127.232 36.67 124.944 39.804C124.337 40.5821 123.48 41.1256 122.517 41.342C121.617 41.548 121.205 41.511 121.029 41.591C121.291 42.5211 121.229 43.5126 120.854 44.403C120.564 44.9276 120.162 45.3823 119.677 45.735C119.192 46.0878 118.636 46.3301 118.047 46.445C117.92 46.5066 117.777 46.5275 117.638 46.5047C117.499 46.482 117.371 46.4168 117.27 46.318C116.943 45.932 117.11 45.707 117.161 44.572C117.281 42.814 116.989 40.591 115.499 39.639C114.648 39.034 108.627 37.726 106.04 33.533C105.684 32.9608 105.414 32.3391 105.24 31.688C104.93 30.572 105.155 27.907 104.32 27.046C104.24 26.9597 104.145 26.8874 104.041 26.832C103.81 26.842 103.075 27.84 102.462 28.197C101.8 28.3979 101.124 28.5477 100.44 28.645C96.931 29.188 95.404 28.724 92.279 27.11C90.034 25.867 90.244 26.041 89.279 24.981C88.879 24.531 88.362 23.921 87.812 23.934C86.26 23.958 84.12 27.522 82.036 27.734C80.347 27.872 77.315 26.361 76.536 26.379C76.467 26.379 76.378 26.463 76.324 26.506C75.593 27.28 75.512 28.399 74.696 28.979C73.965 29.479 72.865 29.188 71.996 29.01C72.0252 29.0592 72.043 29.1142 72.0482 29.1711C72.0534 29.228 72.0458 29.2854 72.026 29.339C72 29.439 72.026 29.41 71.648 29.557C71.518 29.225 71.732 29.338 70.548 29.473C70.3596 29.514 70.1648 29.516 69.9757 29.4788C69.7865 29.4417 69.6069 29.3662 69.448 29.257C68.7745 28.8785 68.1844 28.3677 67.7132 27.7554C67.242 27.1432 66.8994 26.442 66.706 25.694C66.2209 24.5497 66.1687 23.268 66.559 22.088C66.9005 21.1138 67.3884 20.1972 68.006 19.37C67.179 18.5807 66.5222 17.6305 66.076 16.578C65.4332 14.9709 65.3832 13.1875 65.935 11.547C66.241 10.6401 66.6878 9.78702 67.259 9.019C67.9353 7.90916 68.9993 7.08963 70.245 6.719C71.6297 6.50697 73.0351 6.46499 74.43 6.594C74.744 6.007 74.996 4.994 75.34 4.387C76.0175 3.44737 76.8809 2.65699 77.8765 2.06489C78.8722 1.4728 79.9789 1.09161 81.128 0.944997C83.781 0.662997 85.169 2.199 87.428 3.615C88.0762 2.89732 88.7889 2.24057 89.557 1.653C92.1832 0.166493 95.2701 -0.285035 98.212 0.386998C100.697 1.271 102.63 3.616 103.301 4.06C105.335 3.01085 107.584 2.44647 109.873 2.411V2.411ZM104.144 25.749C104.503 25.8464 104.833 26.0326 105.101 26.2905C105.37 26.5485 105.569 26.8698 105.681 27.225C106.24 28.477 106.035 30.708 106.481 31.825C107.617 34.671 110.638 36.39 113.481 37.502C115.012 38.083 115.731 38.13 116.691 38.996C118.305 40.464 118.557 42.786 118.406 44.973C118.737 44.8333 119.042 44.6371 119.306 44.393C119.566 44.1308 119.754 43.8058 119.851 43.4496C119.949 43.0934 119.952 42.718 119.862 42.36C119.746 41.519 119.537 41.183 120.013 40.704C120.89 39.95 122.299 40.522 123.548 39.411C124.137 38.8745 124.535 38.1608 124.682 37.378C124.762 35.908 123.282 34.967 123.321 33.594C123.328 33.5018 123.356 33.4123 123.402 33.332C123.391 33.057 124.995 32.524 126.379 30.396C126.959 29.5108 127.309 28.4947 127.396 27.44C127.528 23.416 126.106 20.14 122.316 18.789C120.507 18.144 120.228 18.599 119.852 18.015C119.607 17.449 120.163 16.824 120.028 13.592C119.987 12.3904 119.759 11.2025 119.352 10.071C119.228 9.7553 119.085 9.44769 118.923 9.15C118.581 8.869 118.367 7.179 113.687 4.633C112.619 4.06686 111.438 3.7464 110.23 3.695C107.889 3.69578 105.583 4.26073 103.507 5.342C102.432 5.621 101.351 3.486 98.861 2.042C97.8785 1.43921 96.7265 1.17246 95.579 1.282C93.9356 1.28823 92.3116 1.63769 90.811 2.308C89.8353 2.87316 88.9651 3.60332 88.239 4.466C87.884 4.846 87.914 4.836 87.716 4.92C87.409 4.992 87.364 4.952 86.728 4.549C84.742 3.267 83.428 1.814 81.212 2.049C80.2283 2.17085 79.2791 2.48965 78.4213 2.98635C77.5634 3.48306 76.8144 4.14749 76.219 4.94V4.94C75.926 5.387 75.534 7.127 74.946 7.501C74.304 7.856 71.512 7.026 69.716 7.918C68.3389 8.86771 67.3037 10.235 66.763 11.818V11.818C66.3467 12.9616 66.2717 14.2015 66.547 15.387C66.8584 16.6631 67.5191 17.8273 68.455 18.749C68.795 19.091 68.834 19.082 68.855 19.273C68.867 19.544 68.691 19.617 68.118 20.497C67.2857 21.5999 66.8965 22.9745 67.027 24.35C67.2137 25.368 67.5779 26.3452 68.103 27.237C68.5681 27.9308 69.2024 28.4945 69.946 28.875C70.4022 28.9364 70.8657 28.9143 71.314 28.81L71.097 28.743L71.14 28.751L71.161 28.687L71.041 28.72C71.0083 28.7016 70.98 28.6764 70.958 28.646C70.936 28.6156 70.9209 28.5809 70.9136 28.5441C70.9064 28.5072 70.9073 28.4693 70.9161 28.4329C70.925 28.3964 70.9417 28.3624 70.965 28.333C71.128 28.166 71.159 28.233 71.803 28.4C72.5881 28.6633 73.4267 28.7255 74.242 28.581C75.16 28.097 75.312 25.781 76.552 25.74C77.508 25.74 79.657 26.804 81.366 26.999C81.7445 27.0498 82.1296 27.0084 82.4886 26.8784C82.8476 26.7483 83.1699 26.5334 83.428 26.252C85.86 24.245 87.338 21.669 89.606 24.052C90.2771 24.9436 91.1813 25.6325 92.219 26.043C95.919 27.996 97.526 28.359 101.961 27.279C102.82 26.535 103.339 25.7 104.144 25.749V25.749ZM71.534 29.243L71.542 29.269V29.276L71.528 29.237L71.534 29.243ZM101.96 27.281H101.967H101.96Z" fill="#212121"/>
<path fill-rule="evenodd" clip-rule="evenodd" d="M82.541 58.411V58.422V58.399V58.409L82.534 58.386L82.541 58.395L82.53 58.373L82.537 58.382L82.526 58.36L82.533 58.369L82.522 58.348L82.529 58.357L82.519 58.336L82.525 58.345L82.511 58.325L82.522 58.334L82.508 58.315L82.518 58.323L82.504 58.306L82.511 58.314L82.497 58.298L82.507 58.305L82.494 58.291L82.504 58.298L82.49 58.284L82.5 58.291L82.487 58.279L82.497 58.285L82.483 58.273L82.496 58.279L82.48 58.269L82.493 58.275L82.479 58.266H82.493L82.479 58.258H82.493L82.479 58.251H82.493L82.479 58.245H82.492L82.482 58.238H82.499L82.489 58.233H82.508H82.495H82.518H82.508H82.531H82.521H82.548H82.541C82.9545 58.1772 83.3544 58.0464 83.721 57.847L83.74 57.836L83.721 57.843L83.746 57.823L83.724 57.833L83.736 57.819L83.704 57.836L83.72 57.823L83.685 57.845L83.697 57.832L83.672 57.849C83.8182 57.6864 83.9401 57.5035 84.034 57.306V57.288C84.2415 56.8652 84.3684 56.4073 84.408 55.938V55.925C84.4879 55.4358 84.4213 54.934 84.2167 54.4826C84.012 54.0312 83.6785 53.6503 83.258 53.388C82.758 53.088 82.273 53.139 82.441 53.109H82.424L82.45 53.102C81.9859 53.1772 81.5415 53.3445 81.143 53.594V53.586L81.124 53.605V53.597L81.105 53.615L81.111 53.605L81.092 53.623L81.099 53.612L81.092 53.62L81.083 53.629L81.089 53.617L81.076 53.632L81.082 53.62L81.07 53.634V53.62L81.064 53.634V53.619L81.058 53.633L81.064 53.618L81.055 53.632L81.061 53.616L81.055 53.63V53.613L81.049 53.627V53.609V53.623V53.605L81.043 53.619V53.6V53.614V53.6V53.614V53.594V53.608V53.588V53.602V53.581V53.596V53.575V53.589V53.568V53.582V53.561V53.575V53.555V53.569L81.036 53.548V53.563L81.028 53.543V53.557L81.021 53.538V53.551L81.01 53.533V53.547L81.003 53.529V53.539L80.993 53.521L81 53.536L80.861 54.136L80.261 53.996C80.1953 53.9101 80.1488 53.8111 80.1247 53.7057C80.1005 53.6003 80.0993 53.4909 80.121 53.385C80.2817 52.8559 80.6046 52.3907 81.044 52.055C81.4586 51.6732 81.9788 51.4254 82.5365 51.344C83.0943 51.2627 83.6636 51.3515 84.17 51.599C87.24 52.931 87.242 57.622 84.835 59.099C84.4065 59.3175 83.9337 59.4352 83.4528 59.4432C82.9719 59.4512 82.4955 59.3492 82.06 59.145V59.145C81.9316 59.0809 81.8251 58.9802 81.7539 58.8556C81.6827 58.731 81.65 58.5881 81.66 58.445L82.095 58.021L82.518 58.461V58.474V58.452V58.463V58.429V58.441V58.417V58.428L82.541 58.411Z" fill="#212121"/>
<path fill-rule="evenodd" clip-rule="evenodd" d="M63.59 30.936C63.768 31.029 67.806 26.987 67.806 26.987C70.535 26.636 100.531 24.613 106.926 28.711C109.181 30.156 108.758 42.129 108.118 45.692C107.723 47.884 103.08 50.092 103.08 50.092C103.08 50.092 87.215 53.329 63.013 48.836C62.318 48.705 63.59 30.936 63.59 30.936Z" fill="white"/>
<path fill-rule="evenodd" clip-rule="evenodd" d="M106.653 27.382C107.128 27.5492 107.559 27.8238 107.91 28.1844C108.262 28.5449 108.526 28.9818 108.682 29.461C110.173 33.222 109.725 43.285 109.169 45.924C109.064 46.4337 108.848 46.9143 108.538 47.332C107.315 48.7867 105.797 49.9651 104.085 50.789C103.616 51.0837 103.081 51.2556 102.528 51.289C93.663 52.744 79.645 52.828 64.564 49.935C62.564 49.554 62.147 49.73 62.078 48.081C61.983 45.812 62.353 40.79 62.525 38.56C63.189 30.001 63.111 30.766 63.445 30.534C64.6346 29.5134 65.7544 28.4143 66.797 27.244C67.666 26.353 67.315 26.481 68.718 26.33C76.329 25.52 99.731 24.014 106.653 27.382ZM83.2 27.038C81.717 27.038 68.321 27.25 68.024 27.55C67.415 28.13 64.731 30.7 64.014 31.209C63.782 36.262 63.427 43.449 63.623 48.151C74.879 50.094 91.639 51.051 102.742 49.062C104.198 48.3809 105.517 47.4402 106.636 46.286C106.819 46.0862 106.958 45.8505 107.044 45.594C107.612 43.163 108.05 31.504 106.403 29.619L106.379 29.596C105.926 29.3055 105.435 29.078 104.921 28.92C99.693 27.155 88.877 27.038 83.2 27.038ZM63.676 48.488L63.669 48.468V48.475V48.481V48.465L63.676 48.488ZM63.665 48.464L63.673 48.48V48.465L63.665 48.464ZM63.465 30.525C63.5579 30.4967 63.6576 30.5006 63.748 30.536C63.6577 30.5002 63.5578 30.4963 63.465 30.525V30.525ZM63.436 30.536H63.442H63.436Z" fill="#212121"/>
<path fill-rule="evenodd" clip-rule="evenodd" d="M63.591 30.936C63.591 30.936 60.697 47.578 63.013 48.836C70.501 52.892 102.796 52.412 103.266 49.659C104.078 44.882 104.426 32.512 102.655 32.759C97.48 33.461 68.432 33.158 63.591 30.936Z" fill="white"/>
<path fill-rule="evenodd" clip-rule="evenodd" d="M63.167 30.863C63.1787 30.7987 63.2048 30.7378 63.2434 30.685C63.282 30.6322 63.332 30.5889 63.3897 30.5582C63.4475 30.5275 63.5114 30.5103 63.5767 30.5078C63.6421 30.5054 63.7071 30.5177 63.767 30.544C68.254 32.351 89.496 32.166 94.375 32.084C97.1855 32.1225 99.9958 31.9936 102.791 31.698C104.05 31.792 104.401 33.171 104.639 34.321C105.173 39.3204 105.095 44.3663 104.408 49.347C104.414 49.6752 104.333 49.9991 104.176 50.2869C104.018 50.5746 103.788 50.8163 103.508 50.988C99.782 53.474 74.499 53.647 64.817 50.473C63.8729 50.2111 62.9856 49.7764 62.2 49.191C60.117 46.801 62.608 34.247 63.163 30.862C63.268 30.881 63.423 30.907 63.167 30.863ZM89.1 50.721C91.574 50.667 100.048 50.368 102.245 49.233C102.574 46.8123 102.77 44.3752 102.83 41.933C102.951 39.4208 102.84 36.9027 102.497 34.411C102.459 34.2194 102.41 34.0303 102.348 33.845C96.71 34.408 84.153 33.908 77.829 33.473C74.862 33.264 66.738 32.618 63.943 31.544C63.443 35.081 62.597 42.344 62.898 45.864C62.8884 46.6354 63.0539 47.3989 63.382 48.097V48.105L63.375 48.095L63.382 48.105H63.389L63.396 48.113C68.276 50.622 83.236 50.843 89.1 50.721ZM63.42 48.14L63.41 48.129H63.417L63.407 48.119H63.414L63.401 48.109H63.407L63.393 48.098H63.4L63.387 48.09L63.397 48.101L63.39 48.09L63.404 48.105L63.394 48.094L63.407 48.106L63.394 48.096L63.42 48.14ZM63.407 48.129L63.4 48.122L63.407 48.129ZM63.4 48.122H63.41L63.4 48.116V48.122Z" fill="#212121"/>
<path fill-rule="evenodd" clip-rule="evenodd" d="M104.089 36.512C105.33 37.13 126.428 24.406 127.545 23.562C128.969 22.488 129.079 29.124 127.737 30.808C125.709 33.35 104.72 44.894 104.123 43.435C104.049 43.253 104.089 36.512 104.089 36.512Z" fill="white"/>
<path fill-rule="evenodd" clip-rule="evenodd" d="M104.259 36.11H104.269L104.245 36.103H104.255L104.236 36.097H104.245H104.226H104.236L104.219 36.092H104.229H104.213H104.222H104.209C104.517 36.0149 104.816 35.9073 105.102 35.771C108.095 34.471 125.244 23.797 126.178 23.201C127.058 22.637 126.842 22.76 127.026 22.637C127.222 22.5113 127.444 22.4324 127.675 22.4065C127.906 22.3807 128.141 22.4085 128.359 22.4878C128.578 22.5671 128.776 22.6959 128.936 22.864C129.097 23.0321 129.217 23.235 129.287 23.457C130.058 25 129.88 29.511 128.772 31.211C126.872 34.074 108.452 43.903 104.654 44.252C104.368 44.2928 104.076 44.2375 103.825 44.095C103.29 43.734 103.412 43.395 103.501 40.542C103.507 40.389 103.639 36.889 103.665 36.507C103.665 36.4348 103.682 36.3636 103.717 36.3002C103.752 36.2368 103.802 36.1832 103.863 36.1445C103.924 36.1058 103.994 36.0832 104.066 36.079C104.138 36.0747 104.21 36.0888 104.275 36.12V36.12H104.285L104.259 36.11ZM104.802 43.332V43.312V43.324V43.302V43.312V43.284V43.332ZM111.129 34.063C109.009 35.1963 106.802 36.159 104.529 36.942C104.565 38.054 104.668 41.099 104.756 42.797C105.372 42.6099 105.973 42.3793 106.556 42.107C109.264 40.896 125.976 31.923 127.035 29.89C127.406 28.8983 127.598 27.8488 127.603 26.79C127.628 26.1452 127.59 25.4995 127.49 24.862C122.767 27.832 115.687 31.774 111.129 34.063V34.063Z" fill="#212121"/>
<path fill-rule="evenodd" clip-rule="evenodd" d="M97.98 37.266V37.274L97.865 37.644L97.515 37.844C92.8693 38.4886 88.1852 38.8166 83.495 38.826C80.411 38.859 71.139 38.705 68.279 37.691L67.55 37.005L67.515 36.005V35.998L68.198 35.27C69.698 35.216 68.736 35.181 70.169 35.503C73.917 36.275 81.634 36.685 85.446 36.843C96.921 37.302 96.607 36.566 97.782 36.928L97.98 37.266Z" fill="#212121"/>
<path fill-rule="evenodd" clip-rule="evenodd" d="M61.16 84.882C52.4889 96.5245 46.3751 109.867 43.219 124.037C42.159 128.752 42.705 127.81 41.943 128.413L41.568 127.93C42.6861 111.654 49.3678 96.257 60.492 84.323L61.105 84.269L61.16 84.882Z" fill="#212121"/>
</svg>